<?xml version="1.0" encoding="UTF-8"?>
<!DOCTYPE svg PUBLIC "-//W3C//DTD SVG 1.1//EN" "http://www.w3.org/Graphics/SVG/1.1/DTD/svg11.dtd">
<svg xmlns="http://www.w3.org/2000/svg" version="1.1" width="575px" height="600px" style="shape-rendering:geometricPrecision; text-rendering:geometricPrecision; image-rendering:optimizeQuality; fill-rule:evenodd; clip-rule:evenodd" xmlns:xlink="http://www.w3.org/1999/xlink">
<g><path style="opacity:1" fill="#fefefe" d="M -0.5,-0.5 C 191.167,-0.5 382.833,-0.5 574.5,-0.5C 574.5,199.5 574.5,399.5 574.5,599.5C 382.833,599.5 191.167,599.5 -0.5,599.5C -0.5,399.5 -0.5,199.5 -0.5,-0.5 Z"/></g>
<g><path style="opacity:1" fill="#030303" d="M 432.5,118.5 C 434.167,119.167 435.833,119.833 437.5,120.5C 431.272,121.317 425.605,119.984 420.5,116.5C 420.167,117 419.833,117.5 419.5,118C 423.492,126.187 426.826,134.687 429.5,143.5C 429.41,146.152 430.076,148.485 431.5,150.5C 432.301,152.042 432.634,153.708 432.5,155.5C 432.41,158.152 433.076,160.485 434.5,162.5C 436.44,173.148 435.44,183.482 431.5,193.5C 429.797,194.66 429.131,193.993 429.5,191.5C 432.501,180.68 432.001,170.014 428,159.5C 428.299,172.038 426.966,184.371 424,196.5C 421.6,202.97 418.433,208.97 414.5,214.5C 410.785,218.38 406.619,221.713 402,224.5C 399.868,231.895 397.535,239.228 395,246.5C 393.792,255.991 391.959,265.325 389.5,274.5C 388.71,273.391 388.21,272.058 388,270.5C 387.767,272.78 386.934,274.78 385.5,276.5C 385.167,275.667 384.833,274.833 384.5,274C 385.25,270.837 385.916,267.67 386.5,264.5C 387.399,253.776 388.732,243.11 390.5,232.5C 386.674,232.203 383.674,230.37 381.5,227C 380.167,226.333 378.833,226.333 377.5,227C 378.992,231.531 378.159,235.697 375,239.5C 366.092,246.336 360.592,244.336 358.5,233.5C 356.827,235.086 354.827,235.753 352.5,235.5C 353.319,231.147 355.652,227.647 359.5,225C 370.798,217.014 381.298,217.848 391,227.5C 391.739,224.454 392.572,221.454 393.5,218.5C 394.924,216.485 395.59,214.152 395.5,211.5C 395.5,210.5 395.5,209.5 395.5,208.5C 393.801,208.34 392.134,208.506 390.5,209C 387.076,211.551 383.41,213.218 379.5,214C 382.017,211.651 384.35,209.151 386.5,206.5C 385.833,206.167 385.167,205.833 384.5,205.5C 380.87,207.315 377.203,209.149 373.5,211C 367.947,213.229 362.28,213.729 356.5,212.5C 357.914,211.376 359.414,210.376 361,209.5C 361.47,208.423 361.303,207.423 360.5,206.5C 360.414,205.504 360.748,204.671 361.5,204C 368.025,202.262 372.691,198.428 375.5,192.5C 375.167,192.167 374.833,191.833 374.5,191.5C 368.437,195.919 362.437,200.253 356.5,204.5C 351.301,206.93 345.968,209.097 340.5,211C 339.167,211.667 337.833,211.667 336.5,211C 339.08,207.842 341.413,204.508 343.5,201C 343.167,200.833 342.833,200.667 342.5,200.5C 334.593,207.703 325.426,212.37 315,214.5C 313.5,214.333 312,214.167 310.5,214C 315.188,211.993 319.521,209.493 323.5,206.5C 331.326,199.675 337.659,191.675 342.5,182.5C 344.099,181.201 344.599,179.535 344,177.5C 342.905,178.693 342.072,180.027 341.5,181.5C 336.284,189.215 329.618,195.382 321.5,200C 323.635,201.556 323.968,203.389 322.5,205.5C 315.134,204.003 307.801,204.17 300.5,206C 297.813,209.522 294.479,211.022 290.5,210.5C 291.214,208.189 292.214,206.022 293.5,204C 291.167,203.333 288.833,203.333 286.5,204C 279.967,207.455 273.3,210.622 266.5,213.5C 265.153,214.028 263.819,214.195 262.5,214C 263.376,212.414 264.376,210.914 265.5,209.5C 265.167,209.167 264.833,208.833 264.5,208.5C 262.167,210 259.833,211.5 257.5,213C 255.792,216.293 254.792,219.793 254.5,223.5C 253.542,229.744 253.209,236.077 253.5,242.5C 251.325,246.028 250.992,249.695 252.5,253.5C 252.768,255.099 252.434,256.432 251.5,257.5C 251.539,256.244 251.039,255.244 250,254.5C 249.817,257.365 249.317,260.031 248.5,262.5C 248.291,261.078 247.791,259.745 247,258.5C 244.482,255.429 241.982,252.429 239.5,249.5C 239.539,248.244 239.039,247.244 238,246.5C 237.667,248.5 237.333,250.5 237,252.5C 234.409,246.899 231.909,241.233 229.5,235.5C 226.75,238.115 226.916,240.448 230,242.5C 230.667,243.833 230.667,245.167 230,246.5C 227.724,246.577 225.557,246.577 223.5,246.5C 222.566,245.432 222.232,244.099 222.5,242.5C 225.797,242.671 226.131,242.005 223.5,240.5C 224.167,239.833 224.833,239.167 225.5,238.5C 224.903,235.029 224.236,231.695 223.5,228.5C 217.464,222.932 210.964,222.266 204,226.5C 199.877,246.764 207.044,261.931 225.5,272C 231.388,273.449 234.388,271.116 234.5,265C 236.112,264.28 237.612,264.446 239,265.5C 241.936,276.035 245.436,286.368 249.5,296.5C 249.631,297.239 249.464,297.906 249,298.5C 246.57,298.383 244.07,297.716 241.5,296.5C 238.671,291.015 236.338,285.349 234.5,279.5C 233.127,279.343 231.793,279.51 230.5,280C 234.132,290.479 237.799,300.645 241.5,310.5C 237.517,309.4 233.85,307.734 230.5,305.5C 229.833,312.012 229.167,318.679 228.5,325.5C 226.605,323.514 224.605,323.181 222.5,324.5C 221.042,327.327 220.042,330.327 219.5,333.5C 217.204,332.267 215.87,330.267 215.5,327.5C 216.232,321.984 219.232,318.651 224.5,317.5C 224.127,314.426 223.461,311.426 222.5,308.5C 220.82,302.956 218.653,297.623 216,292.5C 216.482,296.939 216.982,301.439 217.5,306C 217.333,307.833 217.167,309.667 217,311.5C 216.768,310.263 216.268,309.263 215.5,308.5C 215.5,307.5 215.5,306.5 215.5,305.5C 215.277,301.838 214.277,298.505 212.5,295.5C 210.122,286.739 206.622,278.405 202,270.5C 194.731,257.57 187.064,244.904 179,232.5C 178.003,236.504 177.169,240.504 176.5,244.5C 175.768,245.808 174.934,247.142 174,248.5C 173.819,245.305 173.319,242.305 172.5,239.5C 172.5,238.833 172.5,238.167 172.5,237.5C 172.247,233.96 171.581,230.627 170.5,227.5C 170.023,216.396 168.69,205.396 166.5,194.5C 164.194,197.473 161.527,200.14 158.5,202.5C 158.167,202.167 157.833,201.833 157.5,201.5C 158.702,199.22 159.702,196.886 160.5,194.5C 162.99,191.374 164.323,187.708 164.5,183.5C 157.801,146.762 168.134,115.929 195.5,91C 204.348,84.4077 213.015,77.5743 221.5,70.5C 230.805,64.8502 240.805,60.8502 251.5,58.5C 258.465,57.6591 265.465,57.3257 272.5,57.5C 275.43,58.299 278.43,58.6323 281.5,58.5C 283.187,56.8338 285.187,55.5005 287.5,54.5C 288.79,55.0577 289.623,56.0577 290,57.5C 293.677,53.5769 298.177,51.0769 303.5,50C 320.966,47.7604 337.633,50.4271 353.5,58C 372.095,65.5857 388.262,76.7524 402,91.5C 409.877,103.218 420.044,112.218 432.5,118.5 Z"/></g>
<g><path style="opacity:1" fill="#252525" d="M 287.5,54.5 C 285.187,55.5005 283.187,56.8338 281.5,58.5C 280.363,53.8937 277.363,51.0604 272.5,50C 258.808,47.972 246.141,50.472 234.5,57.5C 233.833,57.5 233.5,57.1667 233.5,56.5C 246.744,48.0709 261.078,45.2375 276.5,48C 280.858,49.1723 284.525,51.3389 287.5,54.5 Z"/></g>
<g><path style="opacity:1" fill="#c2c2c2" d="M 306.5,53.5 C 310.514,53.3345 314.514,53.5012 318.5,54C 309.643,55.2512 300.977,56.9178 292.5,59C 296.931,56.2737 301.598,54.4404 306.5,53.5 Z"/></g>
<g><path style="opacity:1" fill="#626262" d="M 272.5,57.5 C 265.465,57.3257 258.465,57.6591 251.5,58.5C 255.203,56.945 259.203,56.2783 263.5,56.5C 266.686,56.502 269.686,56.8353 272.5,57.5 Z"/></g>
<g><path style="opacity:1" fill="#878787" d="M 233.5,56.5 C 233.5,57.1667 233.833,57.5 234.5,57.5C 233.685,58.8366 232.518,59.8366 231,60.5C 230.721,58.5878 231.554,57.2544 233.5,56.5 Z"/></g>
<g><path style="opacity:1" fill="#7a7a7a" d="M 182.5,114.5 C 182.5,113.833 182.167,113.5 181.5,113.5C 184.118,109.709 186.951,106.043 190,102.5C 190.315,103.908 189.982,105.241 189,106.5C 186.969,109.355 184.803,112.022 182.5,114.5 Z"/></g>
<g><path style="opacity:1" fill="#8d8d8d" d="M 432.5,118.5 C 435.187,118.336 437.854,118.503 440.5,119C 439.756,120.039 438.756,120.539 437.5,120.5C 435.833,119.833 434.167,119.167 432.5,118.5 Z"/></g>
<g><path style="opacity:1" fill="#cbcbcb" d="M 181.5,113.5 C 182.167,113.5 182.5,113.833 182.5,114.5C 176.394,126.313 171.561,138.647 168,151.5C 168.43,137.377 172.93,124.71 181.5,113.5 Z"/></g>
<g><path style="opacity:1" fill="#eaeaea" d="M 324.5,154.5 C 324.808,152.076 324.474,149.743 323.5,147.5C 322.893,147.624 322.56,147.957 322.5,148.5C 319.032,152.141 315.698,155.974 312.5,160C 311.207,160.49 309.873,160.657 308.5,160.5C 311.02,151.71 312.353,142.71 312.5,133.5C 314.144,133.286 315.644,133.62 317,134.5C 317.176,137.882 317.676,141.215 318.5,144.5C 321.318,140.114 324.818,139.447 329,142.5C 329.667,146.167 329.667,149.833 329,153.5C 327.73,155.578 326.23,155.912 324.5,154.5 Z"/></g>
<g><path style="opacity:1" fill="#e2e2e2" d="M 379.5,137.5 C 383.824,137.158 385.824,139.158 385.5,143.5C 385.182,146.956 384.348,150.289 383,153.5C 380.2,155.118 378.7,154.285 378.5,151C 379.064,148.474 379.731,145.974 380.5,143.5C 379.844,141.547 379.511,139.547 379.5,137.5 Z"/></g>
<g><path style="opacity:1" fill="#d9d9d9" d="M 388.5,141.5 C 392.473,142.075 393.473,144.242 391.5,148C 390.207,148.49 388.873,148.657 387.5,148.5C 387.298,146.05 387.631,143.717 388.5,141.5 Z"/></g>
<g><path style="opacity:1" fill="#eaeaea" d="M 254.5,143.5 C 256.948,143.085 258.281,144.085 258.5,146.5C 256.962,151.28 255.129,155.946 253,160.5C 251.867,162.211 250.367,162.711 248.5,162C 247.331,159.993 246.665,157.827 246.5,155.5C 243.916,155.569 241.916,156.735 240.5,159C 238.866,159.494 237.199,159.66 235.5,159.5C 236.948,152.438 241.282,149.272 248.5,150C 249.047,150.925 249.713,151.758 250.5,152.5C 252.118,149.601 253.451,146.601 254.5,143.5 Z"/></g>
<g><path style="opacity:1" fill="#e8e8e8" d="M 347.5,140.5 C 349.144,140.286 350.644,140.62 352,141.5C 352.667,144.833 352.667,148.167 352,151.5C 350.667,152.833 349.333,152.833 348,151.5C 347.501,147.848 347.335,144.182 347.5,140.5 Z"/></g>
<g><path style="opacity:1" fill="#636363" d="M 429.5,143.5 C 430.924,145.515 431.59,147.848 431.5,150.5C 430.076,148.485 429.41,146.152 429.5,143.5 Z"/></g>
<g><path style="opacity:1" fill="#7e7e7e" d="M 322.5,148.5 C 322.56,147.957 322.893,147.624 323.5,147.5C 324.474,149.743 324.808,152.076 324.5,154.5C 323.833,152.5 323.167,150.5 322.5,148.5 Z"/></g>
<g><path style="opacity:1" fill="#d9d9d9" d="M 226.5,149.5 C 232.175,149.86 232.842,151.86 228.5,155.5C 227.311,156.429 225.978,156.762 224.5,156.5C 224.166,153.812 224.832,151.479 226.5,149.5 Z"/></g>
<g><path style="opacity:1" fill="#7f7f7f" d="M 432.5,155.5 C 433.924,157.515 434.59,159.848 434.5,162.5C 433.076,160.485 432.41,158.152 432.5,155.5 Z"/></g>
<g><path style="opacity:1" fill="#dbdbdb" d="M 429.5,191.5 C 426.637,198.892 422.97,205.892 418.5,212.5C 417.713,214.104 416.38,214.771 414.5,214.5C 418.433,208.97 421.6,202.97 424,196.5C 426.966,184.371 428.299,172.038 428,159.5C 432.001,170.014 432.501,180.68 429.5,191.5 Z"/></g>
<g><path style="opacity:1" fill="#525252" d="M 342.5,182.5 C 342.5,181.833 342.167,181.5 341.5,181.5C 342.072,180.027 342.905,178.693 344,177.5C 344.599,179.535 344.099,181.201 342.5,182.5 Z"/></g>
<g><path style="opacity:1" fill="#535353" d="M 164.5,183.5 C 164.323,187.708 162.99,191.374 160.5,194.5C 161.462,190.605 162.796,186.939 164.5,183.5 Z"/></g>
<g><path style="opacity:1" fill="#d5d5d5" d="M 360.5,206.5 C 359.395,205.4 358.062,204.733 356.5,204.5C 362.437,200.253 368.437,195.919 374.5,191.5C 374.833,191.833 375.167,192.167 375.5,192.5C 372.691,198.428 368.025,202.262 361.5,204C 360.748,204.671 360.414,205.504 360.5,206.5 Z"/></g>
<g><path style="opacity:1" fill="#dbdbdb" d="M 341.5,181.5 C 342.167,181.5 342.5,181.833 342.5,182.5C 337.659,191.675 331.326,199.675 323.5,206.5C 323.5,205.833 323.167,205.5 322.5,205.5C 323.968,203.389 323.635,201.556 321.5,200C 329.618,195.382 336.284,189.215 341.5,181.5 Z"/></g>
<g><path style="opacity:1" fill="#3e3e3e" d="M 429.5,191.5 C 429.131,193.993 429.797,194.66 431.5,193.5C 428.893,201.057 424.56,207.39 418.5,212.5C 422.97,205.892 426.637,198.892 429.5,191.5 Z"/></g>
<g><path style="opacity:1" fill="#f9f9f9" d="M 356.5,204.5 C 358.062,204.733 359.395,205.4 360.5,206.5C 361.303,207.423 361.47,208.423 361,209.5C 359.414,210.376 357.914,211.376 356.5,212.5C 362.28,213.729 367.947,213.229 373.5,211C 377.203,209.149 380.87,207.315 384.5,205.5C 385.167,205.833 385.833,206.167 386.5,206.5C 384.35,209.151 382.017,211.651 379.5,214C 383.41,213.218 387.076,211.551 390.5,209C 392.134,208.506 393.801,208.34 395.5,208.5C 395.5,209.5 395.5,210.5 395.5,211.5C 394.076,213.515 393.41,215.848 393.5,218.5C 392.572,221.454 391.739,224.454 391,227.5C 381.298,217.848 370.798,217.014 359.5,225C 355.652,227.647 353.319,231.147 352.5,235.5C 354.827,235.753 356.827,235.086 358.5,233.5C 360.592,244.336 366.092,246.336 375,239.5C 378.159,235.697 378.992,231.531 377.5,227C 378.833,226.333 380.167,226.333 381.5,227C 383.674,230.37 386.674,232.203 390.5,232.5C 388.732,243.11 387.399,253.776 386.5,264.5C 385.2,263.892 383.867,263.225 382.5,262.5C 381.558,262.608 380.725,262.941 380,263.5C 379.333,266.833 379.333,270.167 380,273.5C 381.011,274.337 382.178,274.67 383.5,274.5C 380.27,289.09 374.77,302.757 367,315.5C 361.577,323.345 355.911,331.011 350,338.5C 347.559,340.969 344.726,342.802 341.5,344C 331.068,345.594 321.068,344.261 311.5,340C 291.908,329.292 273.075,317.459 255,304.5C 253.391,301.593 251.558,298.927 249.5,296.5C 245.436,286.368 241.936,276.035 239,265.5C 237.612,264.446 236.112,264.28 234.5,265C 234.388,271.116 231.388,273.449 225.5,272C 207.044,261.931 199.877,246.764 204,226.5C 210.964,222.266 217.464,222.932 223.5,228.5C 223.817,231.572 223.484,234.572 222.5,237.5C 219.83,235.884 216.996,234.551 214,233.5C 211.41,234.687 210.91,236.52 212.5,239C 215.208,240.069 217.875,241.236 220.5,242.5C 221.606,244.284 221.606,246.118 220.5,248C 220.683,249.684 221.35,249.85 222.5,248.5C 226.067,249.168 229.733,249.668 233.5,250C 234.651,252.119 236.151,253.953 238,255.5C 238.191,253.292 238.691,251.292 239.5,249.5C 241.982,252.429 244.482,255.429 247,258.5C 247.791,259.745 248.291,261.078 248.5,262.5C 248.783,263.289 249.283,263.956 250,264.5C 250.186,261.964 250.686,259.631 251.5,257.5C 252.434,256.432 252.768,255.099 252.5,253.5C 252.336,250.813 252.503,248.146 253,245.5C 253.743,247.645 254.576,247.811 255.5,246C 255.192,244.541 254.525,243.374 253.5,242.5C 253.209,236.077 253.542,229.744 254.5,223.5C 255.628,220.815 256.962,218.148 258.5,215.5C 260.595,217.589 262.428,217.589 264,215.5C 264.718,216.451 265.551,216.617 266.5,216C 265.402,215.23 265.402,214.397 266.5,213.5C 273.3,210.622 279.967,207.455 286.5,204C 288.833,203.333 291.167,203.333 293.5,204C 292.214,206.022 291.214,208.189 290.5,210.5C 294.479,211.022 297.813,209.522 300.5,206C 307.801,204.17 315.134,204.003 322.5,205.5C 323.167,205.5 323.5,205.833 323.5,206.5C 319.521,209.493 315.188,211.993 310.5,214C 312,214.167 313.5,214.333 315,214.5C 325.426,212.37 334.593,207.703 342.5,200.5C 342.833,200.667 343.167,200.833 343.5,201C 341.413,204.508 339.08,207.842 336.5,211C 337.833,211.667 339.167,211.667 340.5,211C 345.968,209.097 351.301,206.93 356.5,204.5 Z"/></g>
<g><path style="opacity:1" fill="#181818" d="M 120.5,196.5 C 121.496,196.414 122.329,196.748 123,197.5C 123.505,200.517 125.005,202.851 127.5,204.5C 124.377,207.52 122.377,211.186 121.5,215.5C 120.704,211.244 118.704,207.744 115.5,205C 118.583,203.001 120.249,200.168 120.5,196.5 Z"/></g>
<g><path style="opacity:1" fill="#c8c8c8" d="M 266.5,213.5 C 265.402,214.397 265.402,215.23 266.5,216C 265.551,216.617 264.718,216.451 264,215.5C 262.428,217.589 260.595,217.589 258.5,215.5C 256.962,218.148 255.628,220.815 254.5,223.5C 254.792,219.793 255.792,216.293 257.5,213C 259.833,211.5 262.167,210 264.5,208.5C 264.833,208.833 265.167,209.167 265.5,209.5C 264.376,210.914 263.376,212.414 262.5,214C 263.819,214.195 265.153,214.028 266.5,213.5 Z"/></g>
<g><path style="opacity:1" fill="#5a5a5a" d="M 395.5,211.5 C 395.59,214.152 394.924,216.485 393.5,218.5C 393.41,215.848 394.076,213.515 395.5,211.5 Z"/></g>
<g><path style="opacity:1" fill="#0e0e0e" d="M 284.5,220.5 C 296.39,219.454 307.39,221.954 317.5,228C 321.922,232.075 321.255,234.075 315.5,234C 311.622,231.264 307.455,229.097 303,227.5C 302.167,227.833 301.333,228.167 300.5,228.5C 302.394,237.055 299.061,242.055 290.5,243.5C 283.071,242.403 279.071,238.069 278.5,230.5C 274.604,231.452 271.271,233.452 268.5,236.5C 265.497,235.392 264.997,233.725 267,231.5C 272.206,226.657 278.039,222.99 284.5,220.5 Z"/></g>
<g><path style="opacity:1" fill="#202020" d="M 223.5,228.5 C 224.236,231.695 224.903,235.029 225.5,238.5C 224.833,239.167 224.167,239.833 223.5,240.5C 226.131,242.005 225.797,242.671 222.5,242.5C 222.232,244.099 222.566,245.432 223.5,246.5C 223.167,247.167 222.833,247.833 222.5,248.5C 221.35,249.85 220.683,249.684 220.5,248C 221.606,246.118 221.606,244.284 220.5,242.5C 217.875,241.236 215.208,240.069 212.5,239C 210.91,236.52 211.41,234.687 214,233.5C 216.996,234.551 219.83,235.884 222.5,237.5C 223.484,234.572 223.817,231.572 223.5,228.5 Z"/></g>
<g><path style="opacity:1" fill="#8e8e8e" d="M 170.5,227.5 C 171.581,230.627 172.247,233.96 172.5,237.5C 170.825,234.493 170.159,231.16 170.5,227.5 Z"/></g>
<g><path style="opacity:1" fill="#cbcbcb" d="M 239.5,249.5 C 238.691,251.292 238.191,253.292 238,255.5C 236.151,253.953 234.651,252.119 233.5,250C 229.733,249.668 226.067,249.168 222.5,248.5C 222.833,247.833 223.167,247.167 223.5,246.5C 225.557,246.577 227.724,246.577 230,246.5C 230.667,245.167 230.667,243.833 230,242.5C 226.916,240.448 226.75,238.115 229.5,235.5C 231.909,241.233 234.409,246.899 237,252.5C 237.333,250.5 237.667,248.5 238,246.5C 239.039,247.244 239.539,248.244 239.5,249.5 Z"/></g>
<g><path style="opacity:1" fill="#9d9d9d" d="M 172.5,239.5 C 173.319,242.305 173.819,245.305 174,248.5C 174.934,247.142 175.768,245.808 176.5,244.5C 177.244,247.95 175.91,249.616 172.5,249.5C 172.5,246.167 172.5,242.833 172.5,239.5 Z"/></g>
<g><path style="opacity:1" fill="#5b5b5b" d="M 253.5,242.5 C 254.525,243.374 255.192,244.541 255.5,246C 254.576,247.811 253.743,247.645 253,245.5C 252.503,248.146 252.336,250.813 252.5,253.5C 250.992,249.695 251.325,246.028 253.5,242.5 Z"/></g>
<g><path style="opacity:1" fill="#797979" d="M 251.5,257.5 C 250.686,259.631 250.186,261.964 250,264.5C 249.283,263.956 248.783,263.289 248.5,262.5C 249.317,260.031 249.817,257.365 250,254.5C 251.039,255.244 251.539,256.244 251.5,257.5 Z"/></g>
<g><path style="opacity:1" fill="#151515" d="M 287.5,264.5 C 288.742,267.74 288.576,271.074 287,274.5C 285.644,275.38 284.144,275.714 282.5,275.5C 282.5,273.167 282.5,270.833 282.5,268.5C 282.933,265.741 284.6,264.408 287.5,264.5 Z"/></g>
<g><path style="opacity:1" fill="#191919" d="M 370.5,263.5 C 371.496,263.414 372.329,263.748 373,264.5C 373.588,269.528 373.422,274.528 372.5,279.5C 370.856,279.714 369.356,279.38 368,278.5C 367.129,273.099 367.962,268.099 370.5,263.5 Z"/></g>
<g><path style="opacity:1" fill="#777777" d="M 287.5,264.5 C 284.6,264.408 282.933,265.741 282.5,268.5C 282.005,263.973 283.672,262.639 287.5,264.5 Z"/></g>
<g><path style="opacity:1" fill="#212121" d="M 273.5,260.5 C 275.948,260.085 277.281,261.085 277.5,263.5C 276.018,267.344 275.185,271.344 275,275.5C 271.474,278.545 269.64,277.711 269.5,273C 269.843,268.444 271.176,264.277 273.5,260.5 Z"/></g>
<g><path style="opacity:1" fill="#171717" d="M 348.5,269.5 C 350.635,269.147 351.968,269.98 352.5,272C 349.454,277.036 345.12,280.702 339.5,283C 338.207,283.49 336.873,283.657 335.5,283.5C 335.215,281.712 335.548,280.045 336.5,278.5C 341.284,276.452 345.284,273.452 348.5,269.5 Z"/></g>
<g><path style="opacity:1" fill="#a7a7a7" d="M 388.5,280.5 C 388.59,283.152 387.924,285.485 386.5,287.5C 386.41,284.848 387.076,282.515 388.5,280.5 Z"/></g>
<g><path style="opacity:1" fill="#a5a5a5" d="M 212.5,295.5 C 214.277,298.505 215.277,301.838 215.5,305.5C 213.723,302.495 212.723,299.162 212.5,295.5 Z"/></g>
<g><path style="opacity:1" fill="#101010" d="M 386.5,264.5 C 385.916,267.67 385.25,270.837 384.5,274C 384.833,274.833 385.167,275.667 385.5,276.5C 386.934,274.78 387.767,272.78 388,270.5C 388.21,272.058 388.71,273.391 389.5,274.5C 388.85,276.435 388.517,278.435 388.5,280.5C 387.076,282.515 386.41,284.848 386.5,287.5C 383.61,295.964 380.11,304.297 376,312.5C 369.333,321.833 362.667,331.167 356,340.5C 348.382,349.658 338.549,353.325 326.5,351.5C 324.871,355.351 323.871,359.351 323.5,363.5C 322.076,365.515 321.41,367.848 321.5,370.5C 320.132,375.43 319.298,380.43 319,385.5C 338.238,411.408 358.238,436.742 379,461.5C 382.466,465.796 385.299,470.462 387.5,475.5C 394.634,478.284 401.967,480.451 409.5,482C 414.143,484.072 415.643,487.572 414,492.5C 404.995,514.684 395.828,536.851 386.5,559C 385.552,559.483 384.552,559.649 383.5,559.5C 384.066,553.295 385.566,547.295 388,541.5C 395.368,524.392 402.534,507.225 409.5,490C 409.241,488.739 408.574,487.739 407.5,487C 394.617,483.754 381.95,479.754 369.5,475C 365.993,473.67 364.327,471.17 364.5,467.5C 369.24,468.451 373.74,470.117 378,472.5C 378.667,471.833 378.667,471.167 378,470.5C 358.683,446.528 339.85,422.195 321.5,397.5C 318.894,407.844 317.228,418.344 316.5,429C 321.869,437.569 327.369,446.069 333,454.5C 334.748,460.063 335.415,465.729 335,471.5C 334.074,473.692 332.907,475.692 331.5,477.5C 330.957,477.56 330.624,477.893 330.5,478.5C 333.645,479.803 336.645,479.803 339.5,478.5C 345.514,477.26 351.514,477.26 357.5,478.5C 359.281,482.616 359.947,486.949 359.5,491.5C 358.419,494.627 357.753,497.96 357.5,501.5C 357.492,504.545 357.159,507.545 356.5,510.5C 355.051,516.631 354.051,522.964 353.5,529.5C 352.381,536.496 351.215,543.496 350,550.5C 349.309,553.266 347.809,553.933 345.5,552.5C 345.167,551.333 344.833,550.167 344.5,549C 346.235,537.831 347.901,526.664 349.5,515.5C 350.657,512.727 351.324,509.727 351.5,506.5C 352.628,498.856 353.628,491.189 354.5,483.5C 345.633,484.2 336.799,484.2 328,483.5C 313.153,501.347 296.653,517.514 278.5,532C 275.773,532.818 273.106,532.652 270.5,531.5C 253.873,489.315 234.539,448.315 212.5,408.5C 194.159,419.672 175.492,430.339 156.5,440.5C 154.429,439.214 154.096,437.547 155.5,435.5C 173.834,425.173 192.167,415.173 210.5,405.5C 207.727,397.956 203.893,390.956 199,384.5C 197.612,383.446 196.112,383.28 194.5,384C 179.666,393.252 164.666,402.252 149.5,411C 133.011,419.078 116.677,427.411 100.5,436C 98.9343,436.765 97.6009,436.598 96.5,435.5C 96.4326,434.041 96.7659,432.708 97.5,431.5C 129.41,415.547 160.41,398.047 190.5,379C 195.596,376.403 199.929,377.236 203.5,381.5C 208.087,388.34 212.42,395.34 216.5,402.5C 238.131,442.381 257.464,483.381 274.5,525.5C 275.293,525.931 276.127,526.265 277,526.5C 297.47,510.033 315.137,491.033 330,469.5C 330.52,467.711 330.187,466.044 329,464.5C 328.107,463.289 327.274,463.289 326.5,464.5C 314.196,482.647 300.196,499.48 284.5,515C 282.323,516.202 279.989,516.702 277.5,516.5C 277.343,515.127 277.51,513.793 278,512.5C 280.998,510.667 283.498,508.334 285.5,505.5C 298.556,491.607 310.723,476.94 322,461.5C 323.914,458.702 324.914,455.702 325,452.5C 306.657,423.143 287.324,394.476 267,366.5C 259.204,357.036 251.038,347.869 242.5,339C 237.447,334.435 231.781,330.935 225.5,328.5C 225.185,326.517 224.185,325.184 222.5,324.5C 224.605,323.181 226.605,323.514 228.5,325.5C 229.167,318.679 229.833,312.012 230.5,305.5C 230.17,311.868 230.504,318.202 231.5,324.5C 236.303,327.471 240.97,330.638 245.5,334C 260.902,350.283 275.735,367.116 290,384.5C 294.5,389 299,393.5 303.5,398C 304.5,398.667 305.5,398.667 306.5,398C 310.696,393.144 312.696,387.644 312.5,381.5C 310.93,385.327 308.43,388.327 305,390.5C 302.681,389.591 302.014,387.925 303,385.5C 307.684,378.798 311.85,371.798 315.5,364.5C 294.79,350.293 274.79,335.126 255.5,319C 253.667,317.167 251.833,315.333 250,313.5C 247.257,307.759 244.424,302.093 241.5,296.5C 244.07,297.716 246.57,298.383 249,298.5C 249.464,297.906 249.631,297.239 249.5,296.5C 251.558,298.927 253.391,301.593 255,304.5C 273.075,317.459 291.908,329.292 311.5,340C 321.068,344.261 331.068,345.594 341.5,344C 344.726,342.802 347.559,340.969 350,338.5C 355.911,331.011 361.577,323.345 367,315.5C 374.77,302.757 380.27,289.09 383.5,274.5C 382.178,274.67 381.011,274.337 380,273.5C 379.333,270.167 379.333,266.833 380,263.5C 380.725,262.941 381.558,262.608 382.5,262.5C 383.867,263.225 385.2,263.892 386.5,264.5 Z"/></g>
<g><path style="opacity:1" fill="#161616" d="M 351.5,304.5 C 341.19,305.339 330.857,305.672 320.5,305.5C 317.012,305.295 313.679,304.461 310.5,303C 309.663,301.989 309.33,300.822 309.5,299.5C 326.847,299.654 344.18,299.321 361.5,298.5C 361.67,299.822 361.337,300.989 360.5,302C 357.582,303.15 354.582,303.983 351.5,304.5 Z"/></g>
<g><path style="opacity:1" fill="#b9b9b9" d="M 351.5,304.5 C 345.749,306.04 339.749,306.706 333.5,306.5C 328.987,306.499 324.653,306.166 320.5,305.5C 330.857,305.672 341.19,305.339 351.5,304.5 Z"/></g>
<g><path style="opacity:1" fill="#cbcbcb" d="M 222.5,308.5 C 221.448,308.351 220.448,308.517 219.5,309C 217.153,315.02 215.819,314.853 215.5,308.5C 216.268,309.263 216.768,310.263 217,311.5C 217.167,309.667 217.333,307.833 217.5,306C 216.982,301.439 216.482,296.939 216,292.5C 218.653,297.623 220.82,302.956 222.5,308.5 Z"/></g>
<g><path style="opacity:1" fill="#f6f6f6" d="M 241.5,296.5 C 244.424,302.093 247.257,307.759 250,313.5C 251.833,315.333 253.667,317.167 255.5,319C 274.79,335.126 294.79,350.293 315.5,364.5C 311.85,371.798 307.684,378.798 303,385.5C 302.014,387.925 302.681,389.591 305,390.5C 308.43,388.327 310.93,385.327 312.5,381.5C 312.696,387.644 310.696,393.144 306.5,398C 305.5,398.667 304.5,398.667 303.5,398C 299,393.5 294.5,389 290,384.5C 275.735,367.116 260.902,350.283 245.5,334C 240.97,330.638 236.303,327.471 231.5,324.5C 230.504,318.202 230.17,311.868 230.5,305.5C 233.85,307.734 237.517,309.4 241.5,310.5C 237.799,300.645 234.132,290.479 230.5,280C 231.793,279.51 233.127,279.343 234.5,279.5C 236.338,285.349 238.671,291.015 241.5,296.5 Z"/></g>
<g><path style="opacity:1" fill="#161616" d="M 335.5,315.5 C 337.5,315.5 339.5,315.5 341.5,315.5C 341.985,320.159 340.152,321.492 336,319.5C 335.51,318.207 335.343,316.873 335.5,315.5 Z"/></g>
<g><path style="opacity:1" fill="#151515" d="M 215.5,327.5 C 215.87,330.267 217.204,332.267 219.5,333.5C 214.766,347.699 209.432,361.699 203.5,375.5C 201.994,376.747 200.494,376.747 199,375.5C 198.333,373.5 198.333,371.5 199,369.5C 204.789,355.593 210.289,341.593 215.5,327.5 Z"/></g>
<g><path style="opacity:1" fill="#979797" d="M 323.5,363.5 C 323.59,366.152 322.924,368.485 321.5,370.5C 321.41,367.848 322.076,365.515 323.5,363.5 Z"/></g>
<g><path style="opacity:1" fill="#828282" d="M 204.5,377.5 C 204.372,379.655 204.872,381.655 206,383.5C 210.094,389.359 213.927,395.359 217.5,401.5C 216.833,401.5 216.5,401.833 216.5,402.5C 212.42,395.34 208.087,388.34 203.5,381.5C 203.232,379.901 203.566,378.568 204.5,377.5 Z"/></g>
<g><path style="opacity:1" fill="#121212" d="M 204.5,377.5 C 206.167,377.5 207.833,377.5 209.5,377.5C 218.736,393.256 228.236,408.923 238,424.5C 246.732,440.962 255.732,457.296 265,473.5C 269.785,482.392 273.951,491.392 277.5,500.5C 279.086,503.271 279.586,506.271 279,509.5C 277.506,510.747 276.006,510.747 274.5,509.5C 270.358,498.255 265.524,487.255 260,476.5C 245.807,451.441 231.641,426.441 217.5,401.5C 213.927,395.359 210.094,389.359 206,383.5C 204.872,381.655 204.372,379.655 204.5,377.5 Z"/></g>
<g><path style="opacity:1" fill="#131313" d="M 407.5,415.5 C 408.833,415.5 410.167,415.5 411.5,415.5C 411.5,419.5 411.5,423.5 411.5,427.5C 409.856,427.714 408.356,427.38 407,426.5C 406.245,422.745 406.411,419.078 407.5,415.5 Z"/></g>
<g><path style="opacity:1" fill="#161616" d="M 398.5,427.5 C 400.833,427.5 403.167,427.5 405.5,427.5C 405.5,429.167 405.5,430.833 405.5,432.5C 403.143,432.663 400.81,432.497 398.5,432C 397.272,430.51 397.272,429.01 398.5,427.5 Z"/></g>
<g><path style="opacity:1" fill="#161616" d="M 413.5,427.5 C 415.527,427.338 417.527,427.505 419.5,428C 420.833,429.333 420.833,430.667 419.5,432C 417.19,432.497 414.857,432.663 412.5,432.5C 412.366,430.708 412.699,429.042 413.5,427.5 Z"/></g>
<g><path style="opacity:1" fill="#1a1a1a" d="M 407.5,432.5 C 409.39,432.297 410.89,432.963 412,434.5C 412.667,437.5 412.667,440.5 412,443.5C 410.062,444.86 408.396,444.527 407,442.5C 406.253,439.076 406.42,435.743 407.5,432.5 Z"/></g>
<g><path style="opacity:1" fill="#727272" d="M 97.5,431.5 C 96.7659,432.708 96.4326,434.041 96.5,435.5C 95.8761,435.083 95.5427,434.416 95.5,433.5C 95.7472,432.287 96.4138,431.62 97.5,431.5 Z"/></g>
<g><path style="opacity:1" fill="#171717" d="M 146.5,439.5 C 147.833,439.5 149.167,439.5 150.5,439.5C 150.762,440.978 150.429,442.311 149.5,443.5C 147.393,444.637 145.227,445.637 143,446.5C 141.72,446.387 140.887,445.72 140.5,444.5C 142.162,442.348 144.162,440.682 146.5,439.5 Z"/></g>
<g><path style="opacity:1" fill="#656565" d="M 331.5,477.5 C 333.948,478.473 336.615,478.806 339.5,478.5C 336.645,479.803 333.645,479.803 330.5,478.5C 330.624,477.893 330.957,477.56 331.5,477.5 Z"/></g>
<g><path style="opacity:1" fill="#191919" d="M 386.5,490.5 C 397.481,489.989 400.481,494.489 395.5,504C 386.019,508.837 381.519,506.003 382,495.5C 383.707,493.963 385.207,492.296 386.5,490.5 Z"/></g>
<g><path style="opacity:1" fill="#101010" d="M 329.5,495.5 C 335.167,495.5 340.833,495.5 346.5,495.5C 346.714,497.144 346.38,498.644 345.5,500C 340.177,500.499 334.844,500.666 329.5,500.5C 329.5,498.833 329.5,497.167 329.5,495.5 Z"/></g>
<g><path style="opacity:1" fill="#d4d4d4" d="M 388.5,495.5 C 389.833,495.5 391.167,495.5 392.5,495.5C 393.167,499.5 391.5,501.167 387.5,500.5C 387.366,498.708 387.699,497.042 388.5,495.5 Z"/></g>
<g><path style="opacity:1" fill="#9f9f9f" d="M 359.5,491.5 C 359.664,494.187 359.497,496.854 359,499.5C 358.722,500.416 358.222,501.082 357.5,501.5C 357.753,497.96 358.419,494.627 359.5,491.5 Z"/></g>
<g><path style="opacity:1" fill="#898989" d="M 351.5,506.5 C 351.324,509.727 350.657,512.727 349.5,515.5C 349.215,512.171 349.882,509.171 351.5,506.5 Z"/></g>
<g><path style="opacity:1" fill="#e9e9e9" d="M 217.5,401.5 C 231.641,426.441 245.807,451.441 260,476.5C 265.524,487.255 270.358,498.255 274.5,509.5C 276.006,510.747 277.506,510.747 279,509.5C 279.586,506.271 279.086,503.271 277.5,500.5C 278.117,500.389 278.617,500.056 279,499.5C 279.309,500.766 279.809,501.933 280.5,503C 282.503,503.335 284.17,504.168 285.5,505.5C 283.498,508.334 280.998,510.667 278,512.5C 277.51,513.793 277.343,515.127 277.5,516.5C 279.989,516.702 282.323,516.202 284.5,515C 300.196,499.48 314.196,482.647 326.5,464.5C 327.274,463.289 328.107,463.289 329,464.5C 330.187,466.044 330.52,467.711 330,469.5C 315.137,491.033 297.47,510.033 277,526.5C 276.127,526.265 275.293,525.931 274.5,525.5C 257.464,483.381 238.131,442.381 216.5,402.5C 216.5,401.833 216.833,401.5 217.5,401.5 Z"/></g>
<g><path style="opacity:1" fill="#9d9d9d" d="M 356.5,510.5 C 356.508,517.124 355.508,523.457 353.5,529.5C 354.051,522.964 355.051,516.631 356.5,510.5 Z"/></g>
</svg>
