<?xml version="1.0" encoding="UTF-8"?>
<!DOCTYPE svg PUBLIC "-//W3C//DTD SVG 1.1//EN" "http://www.w3.org/Graphics/SVG/1.1/DTD/svg11.dtd">
<svg xmlns="http://www.w3.org/2000/svg" version="1.1" width="521px" height="479px" style="shape-rendering:geometricPrecision; text-rendering:geometricPrecision; image-rendering:optimizeQuality; fill-rule:evenodd; clip-rule:evenodd" xmlns:xlink="http://www.w3.org/1999/xlink">
<g><path style="opacity:0.004" fill="#000000" d="M 380.5,1.5 C 381.833,2.16667 381.833,2.16667 380.5,1.5 Z"/></g>
<g><path style="opacity:0.004" fill="#000000" d="M 147.5,8.5 C 148.833,9.16667 148.833,9.16667 147.5,8.5 Z"/></g>
<g><path style="opacity:0.004" fill="#000000" d="M 179.5,19.5 C 180.833,20.1667 180.833,20.1667 179.5,19.5 Z"/></g>
<g><path style="opacity:0.004" fill="#000000" d="M 139.5,23.5 C 140.833,24.1667 140.833,24.1667 139.5,23.5 Z"/></g>
<g><path style="opacity:0.004" fill="#000000" d="M 466.5,31.5 C 467.833,32.1667 467.833,32.1667 466.5,31.5 Z"/></g>
<g><path style="opacity:0.004" fill="#000000" d="M 403.5,35.5 C 404.833,36.1667 404.833,36.1667 403.5,35.5 Z"/></g>
<g><path style="opacity:0.004" fill="#000000" d="M 250.5,36.5 C 251.833,37.1667 251.833,37.1667 250.5,36.5 Z"/></g>
<g><path style="opacity:0.004" fill="#000000" d="M 359.5,44.5 C 360.833,45.1667 360.833,45.1667 359.5,44.5 Z"/></g>
<g><path style="opacity:0.004" fill="#000000" d="M 56.5,51.5 C 57.8333,52.1667 57.8333,52.1667 56.5,51.5 Z"/></g>
<g><path style="opacity:0.004" fill="#000000" d="M 28.5,52.5 C 29.8333,53.1667 29.8333,53.1667 28.5,52.5 Z"/></g>
<g><path style="opacity:0.004" fill="#000000" d="M 443.5,56.5 C 444.833,57.1667 444.833,57.1667 443.5,56.5 Z"/></g>
<g><path style="opacity:0.004" fill="#000000" d="M 133.5,57.5 C 134.833,58.1667 134.833,58.1667 133.5,57.5 Z"/></g>
<g><path style="opacity:0.004" fill="#000000" d="M 430.5,80.5 C 431.833,81.1667 431.833,81.1667 430.5,80.5 Z"/></g>
<g><path style="opacity:0.004" fill="#000000" d="M 176.5,84.5 C 177.833,85.1667 177.833,85.1667 176.5,84.5 Z"/></g>
<g><path style="opacity:0.004" fill="#000000" d="M 416.5,86.5 C 417.833,87.1667 417.833,87.1667 416.5,86.5 Z"/></g>
<g><path style="opacity:0.004" fill="#000000" d="M 486.5,90.5 C 487.833,91.1667 487.833,91.1667 486.5,90.5 Z"/></g>
<g><path style="opacity:0.987" fill="#0f0f0f" d="M 236.5,410.5 C 236.938,410.565 237.272,410.399 237.5,410C 235.981,408.649 234.648,407.149 233.5,405.5C 234.269,402.376 235.936,401.709 238.5,403.5C 241.009,404.921 243.343,406.588 245.5,408.5C 245.56,409.043 245.893,409.376 246.5,409.5C 247.803,406.355 247.803,403.355 246.5,400.5C 246.5,400.167 246.5,399.833 246.5,399.5C 246.134,391.615 245.134,383.949 243.5,376.5C 243.5,376.167 243.5,375.833 243.5,375.5C 243.556,370.269 242.889,365.269 241.5,360.5C 241.602,354.85 240.602,349.517 238.5,344.5C 239.833,342.833 239.833,341.167 238.5,339.5C 237.833,333.5 237.167,327.5 236.5,321.5C 236.228,313.934 235.228,306.601 233.5,299.5C 232.401,292.347 231.401,285.18 230.5,278C 226.764,275.476 223.097,272.976 219.5,270.5C 219.821,268.952 220.821,268.285 222.5,268.5C 223.391,269.11 224.391,269.443 225.5,269.5C 226.78,270.931 228.447,271.598 230.5,271.5C 230.198,268.627 229.531,265.961 228.5,263.5C 226.828,247.147 224.995,230.814 223,214.5C 211.382,209.273 199.882,203.939 188.5,198.5C 187.167,199.833 185.833,199.833 184.5,198.5C 184.5,197.5 184.5,196.5 184.5,195.5C 173.631,191.402 162.965,186.735 152.5,181.5C 152.167,182.333 151.833,183.167 151.5,184C 152.916,193.162 154.25,202.329 155.5,211.5C 155.563,216.203 155.229,220.87 154.5,225.5C 151.899,209.903 149.066,194.236 146,178.5C 136.662,173.746 127.162,169.413 117.5,165.5C 120.363,183.621 123.863,201.621 128,219.5C 131.951,222.226 136.118,224.559 140.5,226.5C 139.817,228.176 138.483,228.843 136.5,228.5C 134.072,227.788 131.739,226.788 129.5,225.5C 130.569,241.589 133.069,257.589 137,273.5C 139.406,277.408 142.572,280.408 146.5,282.5C 144.374,283.705 142.207,283.705 140,282.5C 139.167,282.833 138.333,283.167 137.5,283.5C 137.624,284.107 137.957,284.44 138.5,284.5C 140.984,298.756 143.818,313.089 147,327.5C 149.037,329.706 151.203,331.706 153.5,333.5C 153.853,335.635 153.02,336.968 151,337.5C 147.989,335.92 145.156,334.253 142.5,332.5C 139.972,330.11 138.472,327.11 138,323.5C 128.67,270.688 119.504,217.855 110.5,165C 110.376,162.41 111.042,160.077 112.5,158C 128.33,152.211 144.33,147.045 160.5,142.5C 161.232,134.867 161.732,127.2 162,119.5C 162.273,117.899 162.773,116.399 163.5,115C 169.989,112.701 176.656,111.035 183.5,110C 196.861,107.997 210.194,105.83 223.5,103.5C 225.299,103.577 226.966,104.077 228.5,105C 231.667,107.5 234.833,110 238,112.5C 238.907,106.484 239.907,100.484 241,94.5C 241.583,92.9984 242.416,91.6651 243.5,90.5C 254.975,86.0645 266.475,81.7312 278,77.5C 289.054,83.8839 298.22,92.3839 305.5,103C 317.579,106.374 328.912,111.374 339.5,118C 344.783,116.133 350.283,114.633 356,113.5C 369.138,115.829 382.305,117.995 395.5,120C 396.893,121.171 397.727,122.671 398,124.5C 398.676,143.17 399.009,161.837 399,180.5C 398.64,182.421 397.806,184.088 396.5,185.5C 391.494,188.001 386.827,191.001 382.5,194.5C 388.726,198.106 395.392,200.939 402.5,203C 404.487,204.319 405.654,206.152 406,208.5C 406.843,246.204 408.343,283.871 410.5,321.5C 410.267,325.708 408.6,329.208 405.5,332C 353.783,359.521 302.45,387.521 251.5,416C 248.076,417.658 244.742,417.325 241.5,415C 239.76,413.483 238.094,411.983 236.5,410.5 Z"/></g>
<g><path style="opacity:1" fill="#f6f6f6" d="M 276.5,80.5 C 279.14,80.954 281.473,82.1207 283.5,84C 289.358,89.1018 295.024,94.4351 300.5,100C 289.727,103.815 278.893,107.648 268,111.5C 260.242,105.697 252.742,99.5299 245.5,93C 255.813,88.5132 266.147,84.3466 276.5,80.5 Z"/></g>
<g><path style="opacity:1" fill="#f8f8f8" d="M 187.5,113.5 C 194.925,113.681 201.925,112.347 208.5,109.5C 214.45,108.229 220.45,107.729 226.5,108C 233.833,113.333 241.167,118.667 248.5,124C 231.062,127.694 213.728,131.694 196.5,136C 193.697,136.755 191.03,136.422 188.5,135C 181.329,129.325 174.329,123.492 167.5,117.5C 174.042,115.68 180.709,114.347 187.5,113.5 Z"/></g>
<g><path style="opacity:1" fill="#f8f8f8" d="M 322.5,140.5 C 320.5,139.5 318.5,138.5 316.5,137.5C 320.172,134.662 324.172,132.329 328.5,130.5C 329.973,129.928 331.307,129.095 332.5,128C 330.465,127.401 328.799,127.901 327.5,129.5C 319.8,132.345 312.134,135.345 304.5,138.5C 294.027,132.761 284.027,126.261 274.5,119C 285.85,114.408 297.35,110.241 309,106.5C 319.886,111.359 330.719,116.359 341.5,121.5C 345.063,119.551 348.73,117.884 352.5,116.5C 366.209,118.729 379.875,121.062 393.5,123.5C 380.5,131 367.5,138.5 354.5,146C 343.646,145.456 332.979,143.622 322.5,140.5 Z"/></g>
<g><path style="opacity:0.004" fill="#000000" d="M 165.5,109.5 C 166.833,110.167 166.833,110.167 165.5,109.5 Z"/></g>
<g><path style="opacity:1" fill="#c4c4c4" d="M 208.5,109.5 C 201.925,112.347 194.925,113.681 187.5,113.5C 194.282,111.678 201.282,110.345 208.5,109.5 Z"/></g>
<g><path style="opacity:0.004" fill="#000000" d="M 57.5,113.5 C 58.8333,114.167 58.8333,114.167 57.5,113.5 Z"/></g>
<g><path style="opacity:0.004" fill="#000000" d="M 439.5,116.5 C 440.833,117.167 440.833,117.167 439.5,116.5 Z"/></g>
<g><path style="opacity:0.004" fill="#000000" d="M 434.5,123.5 C 435.833,124.167 435.833,124.167 434.5,123.5 Z"/></g>
<g><path style="opacity:1" fill="#989898" d="M 328.5,130.5 C 328.5,129.833 328.167,129.5 327.5,129.5C 328.799,127.901 330.465,127.401 332.5,128C 331.307,129.095 329.973,129.928 328.5,130.5 Z"/></g>
<g><path style="opacity:0.004" fill="#000000" d="M 111.5,129.5 C 112.833,130.167 112.833,130.167 111.5,129.5 Z"/></g>
<g><path style="opacity:1" fill="#fbfbfb" d="M 392.5,129.5 C 394.162,146.309 395.162,163.309 395.5,180.5C 395.586,181.496 395.252,182.329 394.5,183C 382.429,190.026 370.762,197.526 359.5,205.5C 357.89,202.797 356.89,199.797 356.5,196.5C 356.432,188.486 356.099,180.486 355.5,172.5C 355.473,166.949 354.806,161.616 353.5,156.5C 353.162,153.675 354.162,151.508 356.5,150C 368.69,143.408 380.69,136.574 392.5,129.5 Z"/></g>
<g><path style="opacity:1" fill="#f6f6f6" d="M 273.5,132.5 C 278.598,133.957 283.931,134.624 289.5,134.5C 290.675,134.281 291.675,134.614 292.5,135.5C 279.08,144.928 265.413,153.928 251.5,162.5C 238.746,159.478 226.079,156.145 213.5,152.5C 225.47,144.843 237.804,137.677 250.5,131C 258.217,130.602 265.884,131.102 273.5,132.5 Z"/></g>
<g><path style="opacity:1" fill="#5a5a5a" d="M 273.5,132.5 C 279.069,132.376 284.402,133.043 289.5,134.5C 283.931,134.624 278.598,133.957 273.5,132.5 Z"/></g>
<g><path style="opacity:1" fill="#959595" d="M 316.5,137.5 C 318.5,138.5 320.5,139.5 322.5,140.5C 319.941,140.61 317.608,139.944 315.5,138.5C 315.624,137.893 315.957,137.56 316.5,137.5 Z"/></g>
<g><path style="opacity:1" fill="#f5f5f5" d="M 163.5,145.5 C 173.621,147.388 183.288,150.721 192.5,155.5C 180.924,160.244 169.258,164.744 157.5,169C 153.928,170.405 150.261,170.738 146.5,170C 138.888,166.861 131.554,163.194 124.5,159C 137.527,154.381 150.527,149.881 163.5,145.5 Z"/></g>
<g><path style="opacity:1" fill="#f7f7f7" d="M 302.5,150.5 C 315.327,154.555 327.994,159.222 340.5,164.5C 321.892,172.522 303.059,179.855 284,186.5C 272.753,182.196 261.587,177.696 250.5,173C 267.776,165.191 285.109,157.691 302.5,150.5 Z"/></g>
<g><path style="opacity:0.004" fill="#000000" d="M 470.5,152.5 C 471.833,153.167 471.833,153.167 470.5,152.5 Z"/></g>
<g><path style="opacity:0.004" fill="#000000" d="M 82.5,156.5 C 83.8333,157.167 83.8333,157.167 82.5,156.5 Z"/></g>
<g><path style="opacity:1" fill="#f7f7f7" d="M 196.5,158.5 C 210.229,162.031 223.563,166.698 236.5,172.5C 221.757,179.279 206.757,185.612 191.5,191.5C 179.492,186.163 167.826,180.329 156.5,174C 169.803,168.514 183.137,163.348 196.5,158.5 Z"/></g>
<g><path style="opacity:1" fill="#f8f8f8" d="M 154.5,225.5 C 154.5,227.833 154.5,230.167 154.5,232.5C 149.608,231.054 144.941,229.054 140.5,226.5C 136.118,224.559 131.951,222.226 128,219.5C 123.863,201.621 120.363,183.621 117.5,165.5C 127.162,169.413 136.662,173.746 146,178.5C 149.066,194.236 151.899,209.903 154.5,225.5 Z"/></g>
<g><path style="opacity:0.996" fill="#d2d2d2" d="M 392.5,129.5 C 393.209,128.596 394.209,128.263 395.5,128.5C 395.5,145.833 395.5,163.167 395.5,180.5C 395.162,163.309 394.162,146.309 392.5,129.5 Z"/></g>
<g><path style="opacity:1" fill="#fbfbfb" d="M 346.5,177.5 C 346.334,183.176 346.501,188.843 347,194.5C 347.198,196.382 347.698,198.048 348.5,199.5C 349.446,208.4 349.446,217.234 348.5,226C 333.385,232.058 318.385,238.391 303.5,245C 300.28,246.352 296.947,247.186 293.5,247.5C 291.666,228.827 290.166,210.16 289,191.5C 307.719,183.222 326.885,176.222 346.5,170.5C 346.5,172.833 346.5,175.167 346.5,177.5 Z"/></g>
<g><path style="opacity:1" fill="#909090" d="M 353.5,156.5 C 354.806,161.616 355.473,166.949 355.5,172.5C 354.043,167.402 353.376,162.069 353.5,156.5 Z"/></g>
<g><path style="opacity:0.004" fill="#000000" d="M 488.5,174.5 C 489.833,175.167 489.833,175.167 488.5,174.5 Z"/></g>
<g><path style="opacity:0.004" fill="#000000" d="M 61.5,176.5 C 62.8333,177.167 62.8333,177.167 61.5,176.5 Z"/></g>
<g><path style="opacity:1" fill="#f7f7f7" d="M 241.5,175.5 C 253.485,178.994 265.152,183.327 276.5,188.5C 260.115,196.058 243.282,202.391 226,207.5C 216.058,203.946 206.558,199.446 197.5,194C 212.121,187.517 226.787,181.35 241.5,175.5 Z"/></g>
<g><path style="opacity:1" fill="#f8f8f8" d="M 184.5,198.5 C 186.499,214.819 188.499,231.153 190.5,247.5C 190.167,248.833 189.833,250.167 189.5,251.5C 179.959,246.23 170.292,241.23 160.5,236.5C 158.469,228.151 156.802,219.818 155.5,211.5C 154.25,202.329 152.916,193.162 151.5,184C 151.833,183.167 152.167,182.333 152.5,181.5C 162.965,186.735 173.631,191.402 184.5,195.5C 184.5,196.5 184.5,197.5 184.5,198.5 Z"/></g>
<g><path style="opacity:0.004" fill="#000000" d="M 400.5,181.5 C 401.833,182.167 401.833,182.167 400.5,181.5 Z"/></g>
<g><path style="opacity:1" fill="#c0c0c0" d="M 346.5,177.5 C 347.616,184.646 348.283,191.98 348.5,199.5C 347.698,198.048 347.198,196.382 347,194.5C 346.501,188.843 346.334,183.176 346.5,177.5 Z"/></g>
<g><path style="opacity:1" fill="#fbfbfb" d="M 238.5,271.5 C 237.5,271.5 236.5,271.5 235.5,271.5C 235.784,269.585 235.451,267.919 234.5,266.5C 232.268,250.709 230.268,234.875 228.5,219C 228.833,217.5 229.167,216 229.5,214.5C 247.539,206.644 265.873,199.644 284.5,193.5C 285.451,207.558 286.951,221.558 289,235.5C 289.829,240.533 289.662,245.533 288.5,250.5C 271.808,257.515 255.141,264.515 238.5,271.5 Z"/></g>
<g><path style="opacity:1" fill="#f9f9f9" d="M 188.5,198.5 C 199.882,203.939 211.382,209.273 223,214.5C 224.995,230.814 226.828,247.147 228.5,263.5C 228.5,265.5 228.5,267.5 228.5,269.5C 227.5,269.5 226.5,269.5 225.5,269.5C 224.391,269.443 223.391,269.11 222.5,268.5C 214.083,263.789 205.416,259.289 196.5,255C 195.446,252.618 194.779,250.118 194.5,247.5C 194.638,242.586 193.972,237.919 192.5,233.5C 190.647,221.898 189.313,210.232 188.5,198.5 Z"/></g>
<g><path style="opacity:0.984" fill="#131313" d="M 184.5,198.5 C 185.833,199.833 187.167,199.833 188.5,198.5C 189.313,210.232 190.647,221.898 192.5,233.5C 192.362,238.414 193.028,243.081 194.5,247.5C 194.779,250.118 195.446,252.618 196.5,255C 205.416,259.289 214.083,263.789 222.5,268.5C 220.821,268.285 219.821,268.952 219.5,270.5C 211.939,266.885 204.273,263.552 196.5,260.5C 196.942,264.154 197.276,267.821 197.5,271.5C 197.362,276.414 198.028,281.081 199.5,285.5C 200.634,296.971 202.634,308.304 205.5,319.5C 216.389,326.44 227.389,333.107 238.5,339.5C 239.833,341.167 239.833,342.833 238.5,344.5C 227.861,338.178 217.194,331.845 206.5,325.5C 206.44,324.957 206.107,324.624 205.5,324.5C 204.446,329.689 204.779,334.689 206.5,339.5C 208.245,346.718 209.245,354.051 209.5,361.5C 209.362,366.414 210.028,371.081 211.5,375.5C 211.699,377.96 212.365,380.293 213.5,382.5C 222.089,389.28 230.423,396.28 238.5,403.5C 235.936,401.709 234.269,402.376 233.5,405.5C 234.648,407.149 235.981,408.649 237.5,410C 237.272,410.399 236.938,410.565 236.5,410.5C 204.875,384.877 173.542,358.877 142.5,332.5C 145.156,334.253 147.989,335.92 151,337.5C 153.02,336.968 153.853,335.635 153.5,333.5C 159.503,338.666 165.669,343.666 172,348.5C 171.012,331.626 168.512,314.959 164.5,298.5C 157.171,293.167 149.504,288.333 141.5,284C 140.251,283.26 139.251,283.427 138.5,284.5C 137.957,284.44 137.624,284.107 137.5,283.5C 138.333,283.167 139.167,282.833 140,282.5C 142.207,283.705 144.374,283.705 146.5,282.5C 152.114,285.608 157.614,288.941 163,292.5C 163.667,288.833 163.667,285.167 163,281.5C 160.337,267.183 157.837,252.85 155.5,238.5C 148.947,235.392 142.614,232.059 136.5,228.5C 138.483,228.843 139.817,228.176 140.5,226.5C 144.941,229.054 149.608,231.054 154.5,232.5C 154.5,230.167 154.5,227.833 154.5,225.5C 155.229,220.87 155.563,216.203 155.5,211.5C 156.802,219.818 158.469,228.151 160.5,236.5C 170.292,241.23 179.959,246.23 189.5,251.5C 189.833,250.167 190.167,248.833 190.5,247.5C 188.499,231.153 186.499,214.819 184.5,198.5 Z"/></g>
<g><path style="opacity:1" fill="#4d4d4d" d="M 356.5,196.5 C 356.89,199.797 357.89,202.797 359.5,205.5C 358.791,206.404 357.791,206.737 356.5,206.5C 356.5,203.167 356.5,199.833 356.5,196.5 Z"/></g>
<g><path style="opacity:1" fill="#fcfcfc" d="M 398.5,210.5 C 400.488,230.473 401.155,250.806 400.5,271.5C 386.738,277.213 373.071,283.213 359.5,289.5C 357.728,278.237 356.728,266.904 356.5,255.5C 356.059,246.083 356.059,236.749 356.5,227.5C 370.217,221.314 384.217,215.648 398.5,210.5 Z"/></g>
<g><path style="opacity:0.004" fill="#000000" d="M 107.5,219.5 C 108.833,220.167 108.833,220.167 107.5,219.5 Z"/></g>
<g><path style="opacity:0.004" fill="#000000" d="M 423.5,226.5 C 424.833,227.167 424.833,227.167 423.5,226.5 Z"/></g>
<g><path style="opacity:1" fill="#f7f7f7" d="M 136.5,228.5 C 142.614,232.059 148.947,235.392 155.5,238.5C 157.837,252.85 160.337,267.183 163,281.5C 163.667,285.167 163.667,288.833 163,292.5C 157.614,288.941 152.114,285.608 146.5,282.5C 142.572,280.408 139.406,277.408 137,273.5C 133.069,257.589 130.569,241.589 129.5,225.5C 131.739,226.788 134.072,227.788 136.5,228.5 Z"/></g>
<g><path style="opacity:0.004" fill="#000000" d="M 81.5,230.5 C 82.8333,231.167 82.8333,231.167 81.5,230.5 Z"/></g>
<g><path style="opacity:0.004" fill="#000000" d="M 435.5,230.5 C 436.833,231.167 436.833,231.167 435.5,230.5 Z"/></g>
<g><path style="opacity:1" fill="#fcfcfc" d="M 352.5,260.5 C 352.485,270.847 352.818,281.181 353.5,291.5C 336.887,299.035 320.22,306.368 303.5,313.5C 301.94,311.844 300.94,309.844 300.5,307.5C 298.419,289.193 296.919,270.86 296,252.5C 313.798,244.289 331.965,236.955 350.5,230.5C 351.167,240.5 351.833,250.5 352.5,260.5 Z"/></g>
<g><path style="opacity:0.004" fill="#000000" d="M 91.5,233.5 C 92.8333,234.167 92.8333,234.167 91.5,233.5 Z"/></g>
<g><path style="opacity:1" fill="#cecece" d="M 398.5,210.5 C 399.209,209.596 400.209,209.263 401.5,209.5C 401.831,230.34 401.497,251.007 400.5,271.5C 401.155,250.806 400.488,230.473 398.5,210.5 Z"/></g>
<g><path style="opacity:1" fill="#4f4f4f" d="M 192.5,233.5 C 193.972,237.919 194.638,242.586 194.5,247.5C 193.028,243.081 192.362,238.414 192.5,233.5 Z"/></g>
<g><path style="opacity:1" fill="#f9f9f9" d="M 195.5,287.5 C 195.362,292.414 196.028,297.081 197.5,301.5C 198.71,305.819 198.71,310.152 197.5,314.5C 187.742,308.539 178.242,302.205 169,295.5C 165.22,277.545 162.72,259.545 161.5,241.5C 171.872,246.436 182.039,251.769 192,257.5C 193.496,267.464 194.663,277.464 195.5,287.5 Z"/></g>
<g><path style="opacity:1" fill="#9f9f9f" d="M 356.5,227.5 C 356.059,236.749 356.059,246.083 356.5,255.5C 355.59,248.342 354.923,241.008 354.5,233.5C 354.539,231.048 355.206,229.048 356.5,227.5 Z"/></g>
<g><path style="opacity:1" fill="#fafafa" d="M 240.5,311.5 C 240.556,306.269 239.889,301.269 238.5,296.5C 238.379,290.775 237.713,285.109 236.5,279.5C 236.833,278.5 237.167,277.5 237.5,276.5C 255.036,268.321 273.036,261.321 291.5,255.5C 293.581,274.483 295.581,293.483 297.5,312.5C 297.167,313.833 296.833,315.167 296.5,316.5C 279.526,323.785 262.526,331.118 245.5,338.5C 244.808,337.975 244.308,337.308 244,336.5C 243.088,327.986 241.921,319.653 240.5,311.5 Z"/></g>
<g><path style="opacity:0.004" fill="#000000" d="M 105.5,259.5 C 106.833,260.167 106.833,260.167 105.5,259.5 Z"/></g>
<g><path style="opacity:1" fill="#fafafa" d="M 219.5,270.5 C 223.097,272.976 226.764,275.476 230.5,278C 231.401,285.18 232.401,292.347 233.5,299.5C 233.772,307.066 234.772,314.399 236.5,321.5C 237.167,327.5 237.833,333.5 238.5,339.5C 227.389,333.107 216.389,326.44 205.5,319.5C 202.634,308.304 200.634,296.971 199.5,285.5C 199.638,280.586 198.972,275.919 197.5,271.5C 197.276,267.821 196.942,264.154 196.5,260.5C 204.273,263.552 211.939,266.885 219.5,270.5 Z"/></g>
<g><path style="opacity:1" fill="#acacac" d="M 228.5,263.5 C 229.531,265.961 230.198,268.627 230.5,271.5C 228.447,271.598 226.78,270.931 225.5,269.5C 226.5,269.5 227.5,269.5 228.5,269.5C 228.5,267.5 228.5,265.5 228.5,263.5 Z"/></g>
<g><path style="opacity:1" fill="#5d5d5d" d="M 234.5,266.5 C 235.451,267.919 235.784,269.585 235.5,271.5C 236.5,271.5 237.5,271.5 238.5,271.5C 237.432,272.434 236.099,272.768 234.5,272.5C 234.5,270.5 234.5,268.5 234.5,266.5 Z"/></g>
<g><path style="opacity:0.004" fill="#000000" d="M 456.5,271.5 C 457.833,272.167 457.833,272.167 456.5,271.5 Z"/></g>
<g><path style="opacity:1" fill="#b6b6b6" d="M 352.5,260.5 C 353.372,268.662 354.039,276.996 354.5,285.5C 354.495,287.696 354.162,289.696 353.5,291.5C 352.818,281.181 352.485,270.847 352.5,260.5 Z"/></g>
<g><path style="opacity:1" fill="#fbfbfb" d="M 397.5,277.5 C 398.833,277.5 400.167,277.5 401.5,277.5C 401.5,293.5 401.5,309.5 401.5,325.5C 388.951,333.276 375.951,340.276 362.5,346.5C 362.53,335.971 361.863,325.638 360.5,315.5C 359.585,308.185 359.418,300.852 360,293.5C 372.384,287.873 384.884,282.539 397.5,277.5 Z"/></g>
<g><path style="opacity:1" fill="#545454" d="M 197.5,271.5 C 198.972,275.919 199.638,280.586 199.5,285.5C 198.028,281.081 197.362,276.414 197.5,271.5 Z"/></g>
<g><path style="opacity:1" fill="#f6f6f6" d="M 138.5,284.5 C 139.251,283.427 140.251,283.26 141.5,284C 149.504,288.333 157.171,293.167 164.5,298.5C 168.512,314.959 171.012,331.626 172,348.5C 165.669,343.666 159.503,338.666 153.5,333.5C 151.203,331.706 149.037,329.706 147,327.5C 143.818,313.089 140.984,298.756 138.5,284.5 Z"/></g>
<g><path style="opacity:0.004" fill="#000000" d="M 467.5,291.5 C 468.833,292.167 468.833,292.167 467.5,291.5 Z"/></g>
<g><path style="opacity:0.004" fill="#000000" d="M 18.5,297.5 C 19.8333,298.167 19.8333,298.167 18.5,297.5 Z"/></g>
<g><path style="opacity:1" fill="#fafafa" d="M 351.5,296.5 C 352.833,296.5 354.167,296.5 355.5,296.5C 356.832,314.48 357.832,332.48 358.5,350.5C 341.646,358.595 324.98,367.262 308.5,376.5C 306.113,357.19 304.28,337.856 303,318.5C 319.301,311.263 335.468,303.929 351.5,296.5 Z"/></g>
<g><path style="opacity:0.004" fill="#000000" d="M 58.5,300.5 C 59.8333,301.167 59.8333,301.167 58.5,300.5 Z"/></g>
<g><path style="opacity:1" fill="#b1b1b1" d="M 195.5,287.5 C 196.972,291.919 197.638,296.586 197.5,301.5C 196.028,297.081 195.362,292.414 195.5,287.5 Z"/></g>
<g><path style="opacity:0.004" fill="#000000" d="M 479.5,301.5 C 480.833,302.167 480.833,302.167 479.5,301.5 Z"/></g>
<g><path style="opacity:1" fill="#4a4a4a" d="M 238.5,296.5 C 239.889,301.269 240.556,306.269 240.5,311.5C 238.969,306.75 238.302,301.75 238.5,296.5 Z"/></g>
<g><path style="opacity:1" fill="#c4c4c4" d="M 397.5,277.5 C 398.919,276.549 400.585,276.216 402.5,276.5C 402.83,293.009 402.496,309.342 401.5,325.5C 401.5,309.5 401.5,293.5 401.5,277.5C 400.167,277.5 398.833,277.5 397.5,277.5 Z"/></g>
<g><path style="opacity:1" fill="#f8f8f8" d="M 170.5,302.5 C 181.205,308.18 191.205,314.847 200.5,322.5C 203.607,340.462 205.607,358.462 206.5,376.5C 197.092,368.713 187.592,361.047 178,353.5C 175.254,336.53 172.754,319.53 170.5,302.5 Z"/></g>
<g><path style="opacity:1" fill="#8d8d8d" d="M 233.5,299.5 C 235.228,306.601 236.228,313.934 236.5,321.5C 234.772,314.399 233.772,307.066 233.5,299.5 Z"/></g>
<g><path style="opacity:1" fill="#686868" d="M 300.5,307.5 C 300.94,309.844 301.94,311.844 303.5,313.5C 302.791,314.404 301.791,314.737 300.5,314.5C 300.5,312.167 300.5,309.833 300.5,307.5 Z"/></g>
<g><path style="opacity:0.004" fill="#000000" d="M 37.5,315.5 C 38.8333,316.167 38.8333,316.167 37.5,315.5 Z"/></g>
<g><path style="opacity:0.004" fill="#000000" d="M 126.5,318.5 C 127.833,319.167 127.833,319.167 126.5,318.5 Z"/></g>
<g><path style="opacity:1" fill="#fbfbfb" d="M 302.5,364.5 C 302.613,369.518 302.947,374.518 303.5,379.5C 287.811,388.203 272.145,396.87 256.5,405.5C 255.222,405.218 254.222,404.551 253.5,403.5C 251.036,386.16 248.536,368.826 246,351.5C 245.179,348.446 245.345,345.446 246.5,342.5C 262.877,335.208 279.377,328.208 296,321.5C 296.945,321.905 297.612,322.572 298,323.5C 300.546,337.055 302.046,350.722 302.5,364.5 Z"/></g>
<g><path style="opacity:1" fill="#fafafa" d="M 206.5,325.5 C 217.194,331.845 227.861,338.178 238.5,344.5C 240.602,349.517 241.602,354.85 241.5,360.5C 241.444,365.731 242.111,370.731 243.5,375.5C 243.5,375.833 243.5,376.167 243.5,376.5C 243.679,384.408 244.679,392.074 246.5,399.5C 246.5,399.833 246.5,400.167 246.5,400.5C 246.806,403.385 246.473,406.052 245.5,408.5C 243.343,406.588 241.009,404.921 238.5,403.5C 230.423,396.28 222.089,389.28 213.5,382.5C 212.365,380.293 211.699,377.96 211.5,375.5C 211.638,370.586 210.972,365.919 209.5,361.5C 209.245,354.051 208.245,346.718 206.5,339.5C 206.086,334.636 206.086,329.969 206.5,325.5 Z"/></g>
<g><path style="opacity:1" fill="#4a4a4a" d="M 206.5,325.5 C 206.086,329.969 206.086,334.636 206.5,339.5C 204.779,334.689 204.446,329.689 205.5,324.5C 206.107,324.624 206.44,324.957 206.5,325.5 Z"/></g>
<g><path style="opacity:0.004" fill="#000000" d="M 65.5,332.5 C 66.8333,333.167 66.8333,333.167 65.5,332.5 Z"/></g>
<g><path style="opacity:0.004" fill="#000000" d="M 473.5,335.5 C 474.833,336.167 474.833,336.167 473.5,335.5 Z"/></g>
<g><path style="opacity:1" fill="#797979" d="M 360.5,315.5 C 361.863,325.638 362.53,335.971 362.5,346.5C 361.137,336.362 360.47,326.029 360.5,315.5 Z"/></g>
<g><path style="opacity:0.004" fill="#000000" d="M 473.5,338.5 C 474.833,339.167 474.833,339.167 473.5,338.5 Z"/></g>
<g><path style="opacity:0.004" fill="#000000" d="M 147.5,342.5 C 148.833,343.167 148.833,343.167 147.5,342.5 Z"/></g>
<g><path style="opacity:0.004" fill="#000000" d="M 431.5,349.5 C 432.833,350.167 432.833,350.167 431.5,349.5 Z"/></g>
<g><path style="opacity:0.004" fill="#000000" d="M 456.5,350.5 C 457.833,351.167 457.833,351.167 456.5,350.5 Z"/></g>
<g><path style="opacity:1" fill="#9b9b9b" d="M 241.5,360.5 C 242.889,365.269 243.556,370.269 243.5,375.5C 242.111,370.731 241.444,365.731 241.5,360.5 Z"/></g>
<g><path style="opacity:1" fill="#3f3f3f" d="M 209.5,361.5 C 210.972,365.919 211.638,370.586 211.5,375.5C 210.028,371.081 209.362,366.414 209.5,361.5 Z"/></g>
<g><path style="opacity:0.004" fill="#000000" d="M 459.5,368.5 C 460.833,369.167 460.833,369.167 459.5,368.5 Z"/></g>
<g><path style="opacity:0.004" fill="#000000" d="M 488.5,374.5 C 489.833,375.167 489.833,375.167 488.5,374.5 Z"/></g>
<g><path style="opacity:1" fill="#a4a4a4" d="M 302.5,364.5 C 304.246,369.448 304.579,374.448 303.5,379.5C 302.947,374.518 302.613,369.518 302.5,364.5 Z"/></g>
<g><path style="opacity:0.004" fill="#000000" d="M 485.5,382.5 C 486.833,383.167 486.833,383.167 485.5,382.5 Z"/></g>
<g><path style="opacity:1" fill="#ababab" d="M 243.5,376.5 C 245.134,383.949 246.134,391.615 246.5,399.5C 244.679,392.074 243.679,384.408 243.5,376.5 Z"/></g>
<g><path style="opacity:0.004" fill="#000000" d="M 38.5,390.5 C 39.8333,391.167 39.8333,391.167 38.5,390.5 Z"/></g>
<g><path style="opacity:0.004" fill="#000000" d="M 476.5,393.5 C 477.833,394.167 477.833,394.167 476.5,393.5 Z"/></g>
<g><path style="opacity:0.004" fill="#000000" d="M 52.5,401.5 C 53.8333,402.167 53.8333,402.167 52.5,401.5 Z"/></g>
<g><path style="opacity:1" fill="#757575" d="M 253.5,403.5 C 254.222,404.551 255.222,405.218 256.5,405.5C 255.791,406.404 254.791,406.737 253.5,406.5C 253.5,405.5 253.5,404.5 253.5,403.5 Z"/></g>
<g><path style="opacity:0.004" fill="#000000" d="M 202.5,405.5 C 203.833,406.167 203.833,406.167 202.5,405.5 Z"/></g>
<g><path style="opacity:1" fill="#969696" d="M 246.5,400.5 C 247.803,403.355 247.803,406.355 246.5,409.5C 245.893,409.376 245.56,409.043 245.5,408.5C 246.473,406.052 246.806,403.385 246.5,400.5 Z"/></g>
<g><path style="opacity:0.004" fill="#000000" d="M 73.5,410.5 C 74.8333,411.167 74.8333,411.167 73.5,410.5 Z"/></g>
<g><path style="opacity:0.004" fill="#000000" d="M 205.5,426.5 C 206.833,427.167 206.833,427.167 205.5,426.5 Z"/></g>
<g><path style="opacity:0.004" fill="#000000" d="M 286.5,428.5 C 287.833,429.167 287.833,429.167 286.5,428.5 Z"/></g>
<g><path style="opacity:0.004" fill="#000000" d="M 186.5,437.5 C 187.833,438.167 187.833,438.167 186.5,437.5 Z"/></g>
<g><path style="opacity:0.004" fill="#000000" d="M 54.5,441.5 C 55.8333,442.167 55.8333,442.167 54.5,441.5 Z"/></g>
<g><path style="opacity:0.004" fill="#000000" d="M 361.5,441.5 C 362.833,442.167 362.833,442.167 361.5,441.5 Z"/></g>
<g><path style="opacity:0.004" fill="#000000" d="M 330.5,444.5 C 331.833,445.167 331.833,445.167 330.5,444.5 Z"/></g>
<g><path style="opacity:0.004" fill="#000000" d="M 350.5,448.5 C 351.833,449.167 351.833,449.167 350.5,448.5 Z"/></g>
<g><path style="opacity:0.004" fill="#000000" d="M 233.5,460.5 C 234.833,461.167 234.833,461.167 233.5,460.5 Z"/></g>
<g><path style="opacity:0.004" fill="#000000" d="M 232.5,465.5 C 233.833,466.167 233.833,466.167 232.5,465.5 Z"/></g>
<g><path style="opacity:0.004" fill="#000000" d="M 74.5,469.5 C 75.8333,470.167 75.8333,470.167 74.5,469.5 Z"/></g>
</svg>
