<?xml version="1.0" encoding="UTF-8"?>
<!DOCTYPE svg PUBLIC "-//W3C//DTD SVG 1.1//EN" "http://www.w3.org/Graphics/SVG/1.1/DTD/svg11.dtd">
<svg xmlns="http://www.w3.org/2000/svg" version="1.1" width="177px" height="174px" style="shape-rendering:geometricPrecision; text-rendering:geometricPrecision; image-rendering:optimizeQuality; fill-rule:evenodd; clip-rule:evenodd" xmlns:xlink="http://www.w3.org/1999/xlink">
<g><path style="opacity:1" fill="#050505" d="M 12.5,-0.5 C 61.8333,-0.5 111.167,-0.5 160.5,-0.5C 160.5,-0.166667 160.5,0.166667 160.5,0.5C 160.804,1.14987 161.137,1.81654 161.5,2.5C 159.955,3.45189 158.288,3.78522 156.5,3.5C 156.167,3.5 155.833,3.5 155.5,3.5C 108.336,2.50119 61.0029,2.16786 13.5,2.5C 11.5188,1.89459 11.1854,0.894586 12.5,-0.5 Z"/></g>
<g><path style="opacity:0.018" fill="#d9d9d9" d="M 165.5,3.5 C 163.973,3.57298 162.973,2.90632 162.5,1.5C 163.423,0.697084 164.423,0.530417 165.5,1C 164.402,1.76971 164.402,2.60305 165.5,3.5 Z"/></g>
<g><path style="opacity:0.388" fill="#9e9e9e" d="M 13.5,2.5 C 61.0029,2.16786 108.336,2.50119 155.5,3.5C 116.666,3.81579 77.8331,4.14913 39,4.5C 30.4015,3.84645 21.9015,3.17978 13.5,2.5 Z"/></g>
<g><path style="opacity:0.004" fill="#fefffe" d="M 41.5,5.5 C 42.8333,6.16667 42.8333,6.16667 41.5,5.5 Z"/></g>
<g><path style="opacity:0.251" fill="#c1c1c1" d="M 159.5,4.5 C 161.027,4.42702 162.027,5.09368 162.5,6.5C 160.973,6.57298 159.973,5.90632 159.5,4.5 Z"/></g>
<g><path style="opacity:0.997" fill="#626262" d="M 160.5,0.5 C 161.492,0.32842 162.158,0.661754 162.5,1.5C 162.973,2.90632 163.973,3.57298 165.5,3.5C 166.239,3.36899 166.906,3.53566 167.5,4C 166.262,4.68999 166.262,5.18999 167.5,5.5C 167.66,7.15298 168.326,8.48631 169.5,9.5C 170.338,9.84171 170.672,10.5084 170.5,11.5C 170.5,12.1667 170.5,12.8333 170.5,13.5C 169.761,13.631 169.094,13.4643 168.5,13C 169.711,12.1072 169.711,11.2739 168.5,10.5C 167.833,59.665 167.167,108.665 166.5,157.5C 166.5,108.833 166.5,60.1667 166.5,11.5C 166.631,10.6236 166.298,9.95689 165.5,9.5C 164.261,9.94242 163.261,10.6091 162.5,11.5C 160.77,12.0256 159.436,13.0256 158.5,14.5C 158.5,15.1667 158.167,15.5 157.5,15.5C 156.094,15.9731 155.427,16.9731 155.5,18.5C 155.167,19.1667 154.833,19.8333 154.5,20.5C 153.833,21.1667 153.167,21.8333 152.5,22.5C 150.596,22.7376 149.262,23.7376 148.5,25.5C 147.115,24.4264 145.949,23.0931 145,21.5C 144.667,21.8333 144.333,22.1667 144,22.5C 142.75,20.8065 141.25,19.4732 139.5,18.5C 142.675,18.5029 145.508,19.5029 148,21.5C 148.399,21.2716 148.565,20.9382 148.5,20.5C 148.833,20.5 149.167,20.5 149.5,20.5C 149.56,21.0431 149.893,21.3764 150.5,21.5C 151.357,20.2643 152.023,18.931 152.5,17.5C 152.03,16.537 151.363,16.537 150.5,17.5C 150.167,17.5 149.833,17.5 149.5,17.5C 148.167,17.5 147.5,18.1667 147.5,19.5C 146.599,18.7095 145.932,17.7095 145.5,16.5C 148.726,15.6145 151.726,14.2812 154.5,12.5C 154.842,11.6618 155.508,11.3284 156.5,11.5C 157.492,11.6716 158.158,11.3382 158.5,10.5C 160.044,10.2969 161.378,9.63023 162.5,8.5C 163.773,7.7435 163.773,7.07683 162.5,6.5C 162.027,5.09368 161.027,4.42702 159.5,4.5C 158.209,4.73731 157.209,4.40397 156.5,3.5C 158.288,3.78522 159.955,3.45189 161.5,2.5C 161.137,1.81654 160.804,1.14987 160.5,0.5 Z"/></g>
<g><path style="opacity:0.004" fill="#fefffe" d="M 170.5,5.5 C 171.833,6.16667 171.833,6.16667 170.5,5.5 Z"/></g>
<g><path style="opacity:0.004" fill="#fefffe" d="M 116.5,7.5 C 117.833,8.16667 117.833,8.16667 116.5,7.5 Z"/></g>
<g><path style="opacity:0.01" fill="#c6c6c6" d="M 162.5,6.5 C 163.773,7.07683 163.773,7.7435 162.5,8.5C 161.378,9.63023 160.044,10.2969 158.5,10.5C 159.339,8.61612 160.672,7.28279 162.5,6.5 Z"/></g>
<g><path style="opacity:0.149" fill="#bfbfbf" d="M 167.5,5.5 C 169.104,6.28696 169.771,7.6203 169.5,9.5C 168.326,8.48631 167.66,7.15298 167.5,5.5 Z"/></g>
<g><path style="opacity:0.004" fill="#fefffe" d="M 14.5,8.5 C 15.8333,9.16667 15.8333,9.16667 14.5,8.5 Z"/></g>
<g><path style="opacity:1" fill="#040404" d="M 1.5,9.5 C 3.04814,9.82124 3.71481,10.8212 3.5,12.5C 3.5,12.8333 3.5,13.1667 3.5,13.5C 2.16667,61.1667 2.16667,108.833 3.5,156.5C 3.5,157.5 3.5,158.5 3.5,159.5C 2.79778,160.116 1.79778,160.116 0.5,159.5C 0.166667,159.5 -0.166667,159.5 -0.5,159.5C -0.5,110.167 -0.5,60.8333 -0.5,11.5C 0.166667,10.8333 0.833333,10.1667 1.5,9.5 Z"/></g>
<g><path style="opacity:0.033" fill="#ebebeb" d="M 158.5,10.5 C 158.158,11.3382 157.492,11.6716 156.5,11.5C 156.409,9.30228 157.075,8.96895 158.5,10.5 Z"/></g>
<g><path style="opacity:0.004" fill="#fefffe" d="M 146.5,10.5 C 147.833,11.1667 147.833,11.1667 146.5,10.5 Z"/></g>
<g><path style="opacity:0.012" fill="#d5d5d5" d="M 166.5,11.5 C 165.036,12.4054 163.702,12.4054 162.5,11.5C 163.261,10.6091 164.261,9.94242 165.5,9.5C 166.298,9.95689 166.631,10.6236 166.5,11.5 Z"/></g>
<g><path style="opacity:0.998" fill="#080808" d="M 170.5,13.5 C 170.667,61.5012 170.5,109.501 170,157.5C 169.427,159.641 168.594,161.641 167.5,163.5C 166.391,163.443 165.391,163.11 164.5,162.5C 164.167,161.833 163.833,161.167 163.5,160.5C 163.905,159.45 164.571,159.45 165.5,160.5C 166.298,160.043 166.631,159.376 166.5,158.5C 166.5,158.167 166.5,157.833 166.5,157.5C 167.167,108.665 167.833,59.665 168.5,10.5C 169.711,11.2739 169.711,12.1072 168.5,13C 169.094,13.4643 169.761,13.631 170.5,13.5 Z"/></g>
<g><path style="opacity:0.004" fill="#fefffe" d="M 17.5,11.5 C 18.8333,12.1667 18.8333,12.1667 17.5,11.5 Z"/></g>
<g><path style="opacity:0.004" fill="#fefffe" d="M 65.5,11.5 C 66.8333,12.1667 66.8333,12.1667 65.5,11.5 Z"/></g>
<g><path style="opacity:0.004" fill="#fefffe" d="M 68.5,11.5 C 69.8333,12.1667 69.8333,12.1667 68.5,11.5 Z"/></g>
<g><path style="opacity:0.059" fill="#dcdddc" d="M 152.5,12.5 C 151.833,11.1667 151.833,11.1667 152.5,12.5 Z"/></g>
<g><path style="opacity:0.998" fill="#3c3c3c" d="M 17.5,12.5 C 17.5,12.8333 17.5,13.1667 17.5,13.5C 17.5,14.1667 17.8333,14.5 18.5,14.5C 19.0998,15.8999 20.0998,16.8999 21.5,17.5C 20.8333,17.5 20.1667,17.5 19.5,17.5C 19.1667,17.5 18.8333,17.5 18.5,17.5C 16.6941,14.6618 15.6941,14.9952 15.5,18.5C 13.0069,14.9032 9.67358,12.2365 5.5,10.5C 4.81815,11.2427 4.15149,11.9094 3.5,12.5C 3.71481,10.8212 3.04814,9.82124 1.5,9.5C 1.61071,8.88258 1.94404,8.38258 2.5,8C 4.5,7.33333 6.5,7.33333 8.5,8C 11.2857,10.0596 14.2857,11.5596 17.5,12.5 Z"/></g>
<g><path style="opacity:0.013" fill="#dedede" d="M 22.5,13.5 C 21.5084,13.3284 20.8417,13.6618 20.5,14.5C 19.8333,14.5 19.1667,14.5 18.5,14.5C 17.8333,14.5 17.5,14.1667 17.5,13.5C 19.3344,12.506 21.0011,12.506 22.5,13.5 Z"/></g>
<g><path style="opacity:0.275" fill="#bcbcbc" d="M 140.5,14.5 C 103.5,14.5 66.5,14.5 29.5,14.5C 65.569,13.8303 101.736,13.1636 138,12.5C 138.995,13.0659 139.828,13.7326 140.5,14.5 Z"/></g>
<g><path style="opacity:0.075" fill="#dadada" d="M 162.5,11.5 C 161.965,13.4456 160.632,14.4456 158.5,14.5C 159.436,13.0256 160.77,12.0256 162.5,11.5 Z"/></g>
<g><path style="opacity:0.063" fill="#d6d6d6" d="M 22.5,13.5 C 23.7095,13.9321 24.7095,14.5987 25.5,15.5C 23.901,15.7678 22.5676,15.4345 21.5,14.5C 22.1667,14.5 22.5,14.1667 22.5,13.5 Z"/></g>
<g><path style="opacity:0.549" fill="#9b9b9b" d="M 152.5,12.5 C 153.167,12.5 153.833,12.5 154.5,12.5C 151.726,14.2812 148.726,15.6145 145.5,16.5C 143.62,16.7709 142.287,16.1042 141.5,14.5C 145.287,14.9757 148.953,14.309 152.5,12.5 Z"/></g>
<g><path style="opacity:0.392" fill="#9a9a9a" d="M 3.5,13.5 C 3.51683,61.3446 3.51683,109.011 3.5,156.5C 2.16667,108.833 2.16667,61.1667 3.5,13.5 Z"/></g>
<g><path style="opacity:1" fill="#282828" d="M 18.5,14.5 C 19.1667,14.5 19.8333,14.5 20.5,14.5C 20.8333,14.5 21.1667,14.5 21.5,14.5C 22.5676,15.4345 23.901,15.7678 25.5,15.5C 26.8333,15.1667 28.1667,14.8333 29.5,14.5C 66.5,14.5 103.5,14.5 140.5,14.5C 140.833,14.5 141.167,14.5 141.5,14.5C 142.287,16.1042 143.62,16.7709 145.5,16.5C 145.932,17.7095 146.599,18.7095 147.5,19.5C 148.167,19.5 148.5,19.8333 148.5,20.5C 148.565,20.9382 148.399,21.2716 148,21.5C 145.508,19.5029 142.675,18.5029 139.5,18.5C 103.167,18.5 66.8333,18.5 30.5,18.5C 29.5084,18.3284 28.8417,18.6618 28.5,19.5C 28.1667,19.5 27.8333,19.5 27.5,19.5C 25.8007,19.4729 24.4674,18.8062 23.5,17.5C 22.8333,17.5 22.1667,17.5 21.5,17.5C 20.0998,16.8999 19.0998,15.8999 18.5,14.5 Z"/></g>
<g><path style="opacity:0.008" fill="#e7e7e7" d="M 157.5,15.5 C 158.491,17.1227 157.824,18.1227 155.5,18.5C 155.427,16.9731 156.094,15.9731 157.5,15.5 Z"/></g>
<g><path style="opacity:0.383" fill="#9f9f9f" d="M 170.5,11.5 C 171.249,12.531 171.915,13.6976 172.5,15C 171.833,63 171.167,111 170.5,159C 170.833,159.333 171.167,159.667 171.5,160C 170.267,161.667 168.933,163.167 167.5,164.5C 167.5,164.167 167.5,163.833 167.5,163.5C 168.594,161.641 169.427,159.641 170,157.5C 170.5,109.501 170.667,61.5012 170.5,13.5C 170.5,12.8333 170.5,12.1667 170.5,11.5 Z"/></g>
<g><path style="opacity:0.09" fill="#d6d3d6" d="M 19.5,18.5 C 19.5,18.1667 19.5,17.8333 19.5,17.5C 20.1667,17.5 20.8333,17.5 21.5,17.5C 22.1667,17.5 22.8333,17.5 23.5,17.5C 23.1667,18.5 22.5,19.1667 21.5,19.5C 21.1583,18.6618 20.4916,18.3284 19.5,18.5 Z"/></g>
<g><path style="opacity:0.998" fill="#585858" d="M 23.5,17.5 C 24.4674,18.8062 25.8007,19.4729 27.5,19.5C 26.5,21.1667 25.1667,22.5 23.5,23.5C 23.3155,20.8269 22.1489,20.1602 20,21.5C 19.5357,20.9056 19.369,20.2389 19.5,19.5C 20.1667,19.5 20.8333,19.5 21.5,19.5C 22.5,19.1667 23.1667,18.5 23.5,17.5 Z"/></g>
<g><path style="opacity:0.063" fill="#e5e5e5" d="M 30.5,18.5 C 29.9941,20.1054 29.3274,20.4387 28.5,19.5C 28.8417,18.6618 29.5084,18.3284 30.5,18.5 Z"/></g>
<g><path style="opacity:0.047" fill="#cfcfcf" d="M 149.5,20.5 C 149.167,20.5 148.833,20.5 148.5,20.5C 148.5,19.8333 148.167,19.5 147.5,19.5C 147.5,18.1667 148.167,17.5 149.5,17.5C 149.833,18.8333 150.167,18.8333 150.5,17.5C 151.363,16.537 152.03,16.537 152.5,17.5C 152.023,18.931 151.357,20.2643 150.5,21.5C 149.893,21.3764 149.56,21.0431 149.5,20.5 Z"/></g>
<g><path style="opacity:0.998" fill="#0f0f0f" d="M 18.5,17.5 C 18.5,18.1667 18.8333,18.5 19.5,18.5C 19.5,18.8333 19.5,19.1667 19.5,19.5C 19.369,20.2389 19.5357,20.9056 20,21.5C 22.1489,20.1602 23.3155,20.8269 23.5,23.5C 21.8958,24.287 21.2291,25.6203 21.5,27.5C 20.1667,63.8333 20.1667,100.167 21.5,136.5C 22.1098,137.391 22.4431,138.391 22.5,139.5C 23.9864,142.371 22.9864,143.705 19.5,143.5C 19.7845,141.585 19.4511,139.919 18.5,138.5C 17.5125,101.21 17.1792,63.8763 17.5,26.5C 17.5,25.8333 17.5,25.1667 17.5,24.5C 17.7678,22.901 17.4345,21.5676 16.5,20.5C 15.6618,20.1583 15.3284,19.4916 15.5,18.5C 15.6941,14.9952 16.6941,14.6618 18.5,17.5 Z"/></g>
<g><path style="opacity:0.059" fill="#d9d9d9" d="M 16.5,20.5 C 17.4345,21.5676 17.7678,22.901 17.5,24.5C 15.2552,23.7081 14.9219,22.3747 16.5,20.5 Z"/></g>
<g><path style="opacity:1" fill="#171717" d="M 152.5,22.5 C 152.205,24.7354 152.539,26.7354 153.5,28.5C 153.5,63.8333 153.5,99.1667 153.5,134.5C 153.552,136.903 153.219,139.236 152.5,141.5C 152.054,144.01 152.72,146.01 154.5,147.5C 154.328,148.492 154.662,149.158 155.5,149.5C 155.574,151.411 156.574,152.578 158.5,153C 157.207,153.49 155.873,153.657 154.5,153.5C 154.027,152.094 153.027,151.427 151.5,151.5C 151.167,151.5 150.833,151.5 150.5,151.5C 148.081,149.138 145.081,148.138 141.5,148.5C 140.833,147.833 140.167,147.167 139.5,146.5C 139.5,146.167 139.5,145.833 139.5,145.5C 140.514,144.326 141.847,143.66 143.5,143.5C 145.833,143.167 147.167,141.833 147.5,139.5C 147.328,138.508 147.662,137.842 148.5,137.5C 149.222,137.082 149.722,136.416 150,135.5C 150.667,99.5 150.667,63.5 150,27.5C 149.617,26.944 149.117,26.6107 148.5,26.5C 148.5,26.1667 148.5,25.8333 148.5,25.5C 149.262,23.7376 150.596,22.7376 152.5,22.5 Z M 148.5,144.5 C 149.043,144.56 149.376,144.893 149.5,145.5C 148.743,146.773 148.077,146.773 147.5,145.5C 148.167,145.5 148.5,145.167 148.5,144.5 Z"/></g>
<g><path style="opacity:0.296" fill="#aeaeae" d="M 154.5,20.5 C 153.908,23.1272 153.575,25.7938 153.5,28.5C 152.539,26.7354 152.205,24.7354 152.5,22.5C 153.167,21.8333 153.833,21.1667 154.5,20.5 Z"/></g>
<g><path style="opacity:0.169" fill="#cccccc" d="M 23.5,23.5 C 23.3404,25.153 22.6737,26.4863 21.5,27.5C 21.2291,25.6203 21.8958,24.287 23.5,23.5 Z"/></g>
<g><path style="opacity:0.361" fill="#a4a4a4" d="M 17.5,26.5 C 17.1792,63.8763 17.5125,101.21 18.5,138.5C 18.5,139.167 18.5,139.833 18.5,140.5C 17.7811,138.909 16.7811,137.409 15.5,136C 16.1636,99.4023 16.8303,62.9023 17.5,26.5 Z"/></g>
<g><path style="opacity:0.05" fill="#ececec" d="M 153.5,28.5 C 154.352,64.3849 154.852,100.385 155,136.5C 154.722,135.584 154.222,134.918 153.5,134.5C 153.5,99.1667 153.5,63.8333 153.5,28.5 Z"/></g>
<g><path style="opacity:0.117" fill="#dadada" d="M 21.5,27.5 C 21.5118,64.1388 21.5118,100.472 21.5,136.5C 20.1667,100.167 20.1667,63.8333 21.5,27.5 Z"/></g>
<g><path style="opacity:0.537" fill="#777777" d="M 148.5,26.5 C 149.117,26.6107 149.617,26.944 150,27.5C 150.667,63.5 150.667,99.5 150,135.5C 149.722,136.416 149.222,137.082 148.5,137.5C 149.776,100.653 149.776,63.6533 148.5,26.5 Z"/></g>
<g><path style="opacity:0.681" fill="#787878" d="M 58.5,64.5 C 60.3035,63.838 62.3035,63.5046 64.5,63.5C 67.5267,63.2865 70.1934,63.9532 72.5,65.5C 67.8809,64.6864 63.2142,64.3531 58.5,64.5 Z"/></g>
<g><path style="opacity:1" fill="#0b0b0b" d="M 113.5,93.5 C 113.5,83.8333 113.5,74.1667 113.5,64.5C 114.209,63.596 115.209,63.2627 116.5,63.5C 116.5,73.5 116.5,83.5 116.5,93.5C 115.5,93.5 114.5,93.5 113.5,93.5 Z"/></g>
<g><path style="opacity:0.004" fill="#fefffe" d="M 173.5,66.5 C 174.833,67.1667 174.833,67.1667 173.5,66.5 Z"/></g>
<g><path style="opacity:0.608" fill="#6b6b6b" d="M 112.5,64.5 C 112.833,64.5 113.167,64.5 113.5,64.5C 113.5,74.1667 113.5,83.8333 113.5,93.5C 113.167,93.5 112.833,93.5 112.5,93.5C 112.354,84.3185 112.354,74.6518 112.5,64.5 Z"/></g>
<g><path style="opacity:0.345" fill="#c6c6c6" d="M 84.5,71.5 C 83.5386,69.7354 83.2053,67.7354 83.5,65.5C 82.5,65.5 81.5,65.5 80.5,65.5C 80.5,67.5 80.5,69.5 80.5,71.5C 79.5,71.5 78.5,71.5 77.5,71.5C 79.4099,70.316 79.7432,68.816 78.5,67C 80.1909,63.5851 82.5243,62.9185 85.5,65C 84.4841,66.9424 84.1507,69.1091 84.5,71.5 Z"/></g>
<g><path style="opacity:0.043" fill="#d2d2d2" d="M 53.5,68.5 C 53.0679,69.7095 52.4013,70.7095 51.5,71.5C 51.2852,69.8212 51.9519,68.8212 53.5,68.5 Z"/></g>
<g><path style="opacity:0.551" fill="#a5a5a5" d="M 72.5,65.5 C 75.5564,66.8386 76.0564,68.8386 74,71.5C 73.0053,70.9341 72.172,70.2674 71.5,69.5C 73.8418,68.7893 74.1751,67.456 72.5,65.5 Z"/></g>
<g><path style="opacity:0.286" fill="#cccccc" d="M 100.5,78.5 C 100.511,76.9826 101.177,75.8159 102.5,75C 104.473,74.5045 106.473,74.3379 108.5,74.5C 108.5,73.5 108.5,72.5 108.5,71.5C 106.833,71.5 105.167,71.5 103.5,71.5C 105.398,69.6316 107.731,69.465 110.5,71C 109.289,72.1131 109.289,73.2798 110.5,74.5C 106.76,75.1737 103.426,76.507 100.5,78.5 Z"/></g>
<g><path style="opacity:0.128" fill="#d3d3d3" d="M 112.5,93.5 C 112.833,93.5 113.167,93.5 113.5,93.5C 114.5,93.5 115.5,93.5 116.5,93.5C 116.5,83.5 116.5,73.5 116.5,63.5C 115.209,63.2627 114.209,63.596 113.5,64.5C 113.167,64.5 112.833,64.5 112.5,64.5C 112.062,64.5654 111.728,64.3988 111.5,64C 112.624,61.5183 114.29,61.0183 116.5,62.5C 117.191,71.8624 117.858,81.1957 118.5,90.5C 117.846,92.1151 117.346,93.7818 117,95.5C 115.378,94.9011 113.878,94.2344 112.5,93.5 Z"/></g>
<g><path style="opacity:0.208" fill="#c2c2c2" d="M 57.5,70.5 C 57.573,72.0269 56.9063,73.0269 55.5,73.5C 55.427,71.9731 56.0937,70.9731 57.5,70.5 Z"/></g>
<g><path style="opacity:1" fill="#0c0c0c" d="M 96.5,71.5 C 97.5,71.5 98.5,71.5 99.5,71.5C 99.3453,74.8531 100.012,75.1864 101.5,72.5C 101.842,71.6618 102.508,71.3284 103.5,71.5C 105.167,71.5 106.833,71.5 108.5,71.5C 108.5,72.5 108.5,73.5 108.5,74.5C 106.473,74.3379 104.473,74.5045 102.5,75C 101.177,75.8159 100.511,76.9826 100.5,78.5C 99.5128,83.3054 99.1795,88.3054 99.5,93.5C 98.5,93.5 97.5,93.5 96.5,93.5C 96.5,86.1667 96.5,78.8333 96.5,71.5 Z"/></g>
<g><path style="opacity:0.331" fill="#bcbbbc" d="M 99.5,71.5 C 100.167,71.8333 100.833,72.1667 101.5,72.5C 100.012,75.1864 99.3453,74.8531 99.5,71.5 Z"/></g>
<g><path style="opacity:0.322" fill="#b3b3b3" d="M 77.5,74.5 C 78.5,74.5 79.5,74.5 80.5,74.5C 80.5,79.8333 80.5,85.1667 80.5,90.5C 80.0637,85.0613 79.0637,79.728 77.5,74.5 Z"/></g>
<g><path style="opacity:0.19" fill="#d6d6d6" d="M 50.5,75.5 C 50.5,78.1667 50.5,80.8333 50.5,83.5C 48.2856,80.9559 48.2856,78.2893 50.5,75.5 Z"/></g>
<g><path style="opacity:1" fill="#1c1c1c" d="M 84.5,71.5 C 86.7486,70.8697 89.0819,71.2031 91.5,72.5C 92.5498,73.4288 92.5498,74.0954 91.5,74.5C 88.8333,74.5 86.1667,74.5 83.5,74.5C 83.3341,79.5111 83.5007,84.5111 84,89.5C 84.3826,90.056 84.8826,90.3893 85.5,90.5C 87.8439,90.9397 89.8439,91.9397 91.5,93.5C 89.0336,94.6341 86.367,94.8007 83.5,94C 81.5743,93.5776 80.5743,92.4109 80.5,90.5C 80.5,85.1667 80.5,79.8333 80.5,74.5C 79.5,74.5 78.5,74.5 77.5,74.5C 76.1667,73.5 76.1667,72.5 77.5,71.5C 78.5,71.5 79.5,71.5 80.5,71.5C 80.5,69.5 80.5,67.5 80.5,65.5C 81.5,65.5 82.5,65.5 83.5,65.5C 83.2053,67.7354 83.5386,69.7354 84.5,71.5 Z"/></g>
<g><path style="opacity:0.333" fill="#b8b8b8" d="M 91.5,74.5 C 88.9676,75.4517 86.6343,76.1184 84.5,76.5C 84.2053,81.0506 84.5386,85.7173 85.5,90.5C 84.8826,90.3893 84.3826,90.056 84,89.5C 83.5007,84.5111 83.3341,79.5111 83.5,74.5C 86.1667,74.5 88.8333,74.5 91.5,74.5 Z"/></g>
<g><path style="opacity:1" fill="#313131" d="M 58.5,64.5 C 63.2142,64.3531 67.8809,64.6864 72.5,65.5C 74.1751,67.456 73.8418,68.7893 71.5,69.5C 70.5084,69.6716 69.8417,69.3382 69.5,68.5C 68.2233,67.1024 66.5566,66.4357 64.5,66.5C 62.6455,66.3402 61.3121,67.0069 60.5,68.5C 59.5,69.1667 58.5,69.8333 57.5,70.5C 56.0937,70.9731 55.427,71.9731 55.5,73.5C 55.2941,77.8982 55.6274,82.2315 56.5,86.5C 56.5,88.5 57.5,89.5 59.5,89.5C 63.1667,90.8333 66.8333,90.8333 70.5,89.5C 71.4916,89.6716 72.1583,89.3382 72.5,88.5C 73.209,87.596 74.209,87.2627 75.5,87.5C 75.8799,89.698 75.2132,91.3646 73.5,92.5C 72.5084,92.3284 71.8417,92.6618 71.5,93.5C 68.3291,94.7664 65.1625,95.4331 62,95.5C 59.9419,94.7709 58.1086,93.7709 56.5,92.5C 56.0269,91.0937 55.0269,90.427 53.5,90.5C 52.8333,89.5 52.1667,88.5 51.5,87.5C 51.7678,85.901 51.4345,84.5676 50.5,83.5C 50.5,80.8333 50.5,78.1667 50.5,75.5C 50.2322,73.901 50.5655,72.5676 51.5,71.5C 52.4013,70.7095 53.0679,69.7095 53.5,68.5C 54.5846,66.4131 56.2512,65.0798 58.5,64.5 Z"/></g>
<g><path style="opacity:0.565" fill="#939393" d="M 69.5,68.5 C 66.0485,67.3154 63.0485,67.3154 60.5,68.5C 61.3121,67.0069 62.6455,66.3402 64.5,66.5C 66.5566,66.4357 68.2233,67.1024 69.5,68.5 Z"/></g>
<g><path style="opacity:0.261" fill="#a8a8a8" d="M 96.5,71.5 C 96.5,78.8333 96.5,86.1667 96.5,93.5C 97.5,93.5 98.5,93.5 99.5,93.5C 99.1795,88.3054 99.5128,83.3054 100.5,78.5C 100.197,83.43 100.531,88.2633 101.5,93C 99.7505,94.3186 97.7505,94.8186 95.5,94.5C 95.8047,89.2384 95.4714,84.0717 94.5,79C 95.1233,76.3927 95.79,73.8927 96.5,71.5 Z"/></g>
<g><path style="opacity:0.122" fill="#d1d1d1" d="M 50.5,83.5 C 51.4345,84.5676 51.7678,85.901 51.5,87.5C 49.2552,86.7081 48.9219,85.3747 50.5,83.5 Z"/></g>
<g><path style="opacity:0.62" fill="#9f9f9f" d="M 56.5,86.5 C 57.8333,87.1667 58.8333,88.1667 59.5,89.5C 57.5,89.5 56.5,88.5 56.5,86.5 Z"/></g>
<g><path style="opacity:0.008" fill="#e5e5e5" d="M 72.5,88.5 C 72.1583,89.3382 71.4916,89.6716 70.5,89.5C 70.4088,87.3023 71.0755,86.9689 72.5,88.5 Z"/></g>
<g><path style="opacity:0.549" fill="#a6a6a6" d="M 53.5,90.5 C 55.0269,90.427 56.0269,91.0937 56.5,92.5C 54.9731,92.573 53.9731,91.9063 53.5,90.5 Z"/></g>
<g><path style="opacity:0.694" fill="#838383" d="M 91.5,93.5 C 89.8439,91.9397 87.8439,90.9397 85.5,90.5C 87.4672,90.7394 89.3005,90.4061 91,89.5C 92.6298,90.8179 92.7965,92.1512 91.5,93.5 Z"/></g>
<g><path style="opacity:0.02" fill="#e8e8e8" d="M 71.5,93.5 C 71.8417,92.6618 72.5084,92.3284 73.5,92.5C 73.5912,94.6977 72.9245,95.0311 71.5,93.5 Z"/></g>
<g><path style="opacity:0.004" fill="#fefffe" d="M 173.5,104.5 C 174.833,105.167 174.833,105.167 173.5,104.5 Z"/></g>
<g><path style="opacity:0.424" fill="#afafaf" d="M 147.5,139.5 C 147.167,141.833 145.833,143.167 143.5,143.5C 144.5,141.833 145.833,140.5 147.5,139.5 Z"/></g>
<g><path style="opacity:0.522" fill="#b7b7b7" d="M 18.5,141.5 C 18.7406,143.898 18.0739,145.898 16.5,147.5C 16.595,145.214 17.2616,143.214 18.5,141.5 Z"/></g>
<g><path style="opacity:0.397" fill="#989898" d="M 28.5,144.5 C 65.4693,145.481 102.469,145.815 139.5,145.5C 139.5,145.833 139.5,146.167 139.5,146.5C 103.165,146.667 66.8318,146.5 30.5,146C 29.5842,145.722 28.9175,145.222 28.5,144.5 Z"/></g>
<g><path style="opacity:0.02" fill="#bcbcbc" d="M 148.5,144.5 C 148.56,143.957 148.893,143.624 149.5,143.5C 152.5,148.5 151.5,149.5 146.5,146.5C 146.624,145.893 146.957,145.56 147.5,145.5C 148.077,146.773 148.743,146.773 149.5,145.5C 149.376,144.893 149.043,144.56 148.5,144.5 Z"/></g>
<g><path style="opacity:0.71" fill="#a8a8a8" d="M 152.5,141.5 C 153.103,143.19 154.103,144.69 155.5,146C 154.944,146.383 154.611,146.883 154.5,147.5C 152.72,146.01 152.054,144.01 152.5,141.5 Z"/></g>
<g><path style="opacity:0.999" fill="#0a0a0a" d="M 26.5,143.5 C 27.4916,143.328 28.1583,143.662 28.5,144.5C 28.9175,145.222 29.5842,145.722 30.5,146C 66.8318,146.5 103.165,146.667 139.5,146.5C 140.167,147.167 140.833,147.833 141.5,148.5C 104.864,149.481 68.1974,149.814 31.5,149.5C 30.7784,149.918 30.2784,150.584 30,151.5C 29.5357,150.906 29.369,150.239 29.5,149.5C 27.8333,148.167 26.1667,148.167 24.5,149.5C 22.0233,148.88 22.0233,147.88 24.5,146.5C 23.3606,144.604 24.0272,143.604 26.5,143.5 Z"/></g>
<g><path style="opacity:0.016" fill="#e8e8e8" d="M 16.5,147.5 C 16.6716,148.492 16.3382,149.158 15.5,149.5C 13.9689,148.075 14.3023,147.409 16.5,147.5 Z"/></g>
<g><path style="opacity:1" fill="#2b2b2b" d="M 18.5,138.5 C 19.4511,139.919 19.7845,141.585 19.5,143.5C 22.9864,143.705 23.9864,142.371 22.5,139.5C 24.1667,140.5 25.5,141.833 26.5,143.5C 24.0272,143.604 23.3606,144.604 24.5,146.5C 22.0233,147.88 22.0233,148.88 24.5,149.5C 22.5739,150.486 20.5739,151.486 18.5,152.5C 16.9731,152.427 15.9731,153.094 15.5,154.5C 15.5,155.167 15.1667,155.5 14.5,155.5C 13.5,155.833 12.8333,156.5 12.5,157.5C 12.1667,158.5 11.5,159.167 10.5,159.5C 10.1667,159.5 9.83333,159.5 9.5,159.5C 8.79105,158.596 7.79105,158.263 6.5,158.5C 6.83333,157.5 7.5,156.833 8.5,156.5C 11.8553,155.145 14.1886,152.811 15.5,149.5C 16.3382,149.158 16.6716,148.492 16.5,147.5C 18.0739,145.898 18.7406,143.898 18.5,141.5C 18.5,141.167 18.5,140.833 18.5,140.5C 18.5,139.833 18.5,139.167 18.5,138.5 Z"/></g>
<g><path style="opacity:0.129" fill="#e6e4e4" d="M 22.5,145.5 C 21.8333,145.5 21.5,145.833 21.5,146.5C 21.1667,146.5 20.8333,146.5 20.5,146.5C 20.7107,144.576 21.3774,144.243 22.5,145.5 Z"/></g>
<g><path style="opacity:0.051" fill="#dbdbdb" d="M 154.5,147.5 C 156.698,147.409 157.031,148.075 155.5,149.5C 154.662,149.158 154.328,148.492 154.5,147.5 Z"/></g>
<g><path style="opacity:0.071" fill="#cecece" d="M 24.5,149.5 C 26.1667,148.167 27.8333,148.167 29.5,149.5C 27.64,150.071 25.9733,150.071 24.5,149.5 Z"/></g>
<g><path style="opacity:0.104" fill="#dcdcdc" d="M 141.5,148.5 C 145.081,148.138 148.081,149.138 150.5,151.5C 148.914,150.587 147.414,150.587 146,151.5C 145.667,150.833 145.333,150.167 145,149.5C 107.261,150.804 69.4278,150.804 31.5,149.5C 68.1974,149.814 104.864,149.481 141.5,148.5 Z"/></g>
<g><path style="opacity:0.737" fill="#979797" d="M 15.5,149.5 C 14.1886,152.811 11.8553,155.145 8.5,156.5C 10.4517,153.882 12.785,151.548 15.5,149.5 Z"/></g>
<g><path style="opacity:0.071" fill="#d4d4d4" d="M 18.5,152.5 C 18.0269,153.906 17.0269,154.573 15.5,154.5C 15.9731,153.094 16.9731,152.427 18.5,152.5 Z"/></g>
<g><path style="opacity:0.004" fill="#bebebe" d="M 151.5,151.5 C 153.027,151.427 154.027,152.094 154.5,153.5C 152.877,154.491 151.877,153.824 151.5,151.5 Z"/></g>
<g><path style="opacity:0.053" fill="#f0f0f0" d="M 14.5,155.5 C 14.5,156.833 13.8333,157.5 12.5,157.5C 12.8333,156.5 13.5,155.833 14.5,155.5 Z"/></g>
<g><path style="opacity:0.204" fill="#c1c1c1" d="M 3.5,156.5 C 4.22235,157.551 5.22235,158.218 6.5,158.5C 5.89459,160.481 4.89459,160.815 3.5,159.5C 3.5,158.5 3.5,157.5 3.5,156.5 Z"/></g>
<g><path style="opacity:0.718" fill="#9a9a9a" d="M 158.5,157.5 C 160.411,158.075 162.078,159.075 163.5,160.5C 163.833,161.167 164.167,161.833 164.5,162.5C 164.5,163.167 164.167,163.5 163.5,163.5C 163.5,162.833 163.167,162.5 162.5,162.5C 161.167,160.833 159.833,159.167 158.5,157.5 Z"/></g>
<g><path style="opacity:1" fill="#3f3f3f" d="M 155.5,149.5 C 158.27,151.228 160.436,153.562 162,156.5C 162.333,156.167 162.667,155.833 163,155.5C 163.422,157.426 164.589,158.426 166.5,158.5C 166.631,159.376 166.298,160.043 165.5,160.5C 164.571,159.45 163.905,159.45 163.5,160.5C 162.078,159.075 160.411,158.075 158.5,157.5C 156.833,156.5 155.5,155.167 154.5,153.5C 155.873,153.657 157.207,153.49 158.5,153C 156.574,152.578 155.574,151.411 155.5,149.5 Z"/></g>
<g><path style="opacity:0.078" fill="#c4c4c4" d="M 9.5,159.5 C 9.83333,159.5 10.1667,159.5 10.5,159.5C 10.0269,160.906 9.02694,161.573 7.5,161.5C 7.83333,160.5 8.5,159.833 9.5,159.5 Z"/></g>
<g><path style="opacity:1" fill="#474747" d="M 162.5,162.5 C 163.167,162.5 163.5,162.833 163.5,163.5C 164.167,163.5 164.5,163.167 164.5,162.5C 165.391,163.11 166.391,163.443 167.5,163.5C 167.5,163.833 167.5,164.167 167.5,164.5C 166.833,165.833 165.833,166.833 164.5,167.5C 164.206,164.519 162.872,163.852 160.5,165.5C 160.932,164.29 161.599,163.29 162.5,162.5 Z"/></g>
<g><path style="opacity:0.043" fill="#c7c7c7" d="M 2.5,163.5 C 3.5,163.833 4.16667,164.5 4.5,165.5C 2.00651,165.869 1.33985,165.203 2.5,163.5 Z"/></g>
<g><path style="opacity:0.122" fill="#c3c3c3" d="M 7.5,163.5 C 9.02694,163.427 10.0269,164.094 10.5,165.5C 8.97306,165.573 7.97306,164.906 7.5,163.5 Z"/></g>
<g><path style="opacity:0.027" fill="#fefffe" d="M 4.5,166.5 C 3.83333,167.167 3.83333,167.167 4.5,166.5 Z"/></g>
<g><path style="opacity:1" fill="#2a2a2a" d="M 6.5,158.5 C 7.79105,158.263 8.79105,158.596 9.5,159.5C 8.5,159.833 7.83333,160.5 7.5,161.5C 7.5,162.167 7.5,162.833 7.5,163.5C 7.97306,164.906 8.97306,165.573 10.5,165.5C 60.4877,166.829 110.488,166.829 160.5,165.5C 162.872,163.852 164.206,164.519 164.5,167.5C 163.833,168.167 163.167,168.833 162.5,169.5C 160.565,170.15 158.565,170.483 156.5,170.5C 107.477,170.815 58.4767,170.481 9.5,169.5C 8.20498,168.512 6.87165,167.512 5.5,166.5C 5.16667,166.5 4.83333,166.5 4.5,166.5C 4.5,166.167 4.5,165.833 4.5,165.5C 4.16667,164.5 3.5,163.833 2.5,163.5C 0.895779,162.713 0.229113,161.38 0.5,159.5C 1.79778,160.116 2.79778,160.116 3.5,159.5C 4.89459,160.815 5.89459,160.481 6.5,158.5 Z"/></g>
<g><path style="opacity:0.008" fill="#d8d8d8" d="M 5.5,166.5 C 6.87165,167.512 8.20498,168.512 9.5,169.5C 7.02741,169.912 5.69408,168.912 5.5,166.5 Z"/></g>
<g><path style="opacity:0.031" fill="#fefffe" d="M 162.5,169.5 C 163.833,170.167 163.833,170.167 162.5,169.5 Z"/></g>
<g><path style="opacity:0.004" fill="#fefffe" d="M 5.5,170.5 C 6.83333,171.167 6.83333,171.167 5.5,170.5 Z"/></g>
<g><path style="opacity:0.227" fill="#c1c1c1" d="M 9.5,169.5 C 58.4767,170.481 107.477,170.815 156.5,170.5C 156.5,170.833 156.5,171.167 156.5,171.5C 114.12,171.44 71.9531,171.773 30,172.5C 24.2488,171.69 18.4155,171.19 12.5,171C 11.2625,170.768 10.2625,170.268 9.5,169.5 Z"/></g>
<g><path style="opacity:0.004" fill="#fefffe" d="M 156.5,171.5 C 157.833,172.167 157.833,172.167 156.5,171.5 Z"/></g>
<g><path style="opacity:0.004" fill="#fefffe" d="M 105.5,173.5 C 104.833,172.167 104.833,172.167 105.5,173.5 Z"/></g>
</svg>
